<?xml version="1.0" encoding="utf-8"?>
<!-- Generator: Adobe Illustrator 15.1.0, SVG Export Plug-In . SVG Version: 6.00 Build 0)  -->
<!DOCTYPE svg PUBLIC "-//W3C//DTD SVG 1.1//EN" "http://www.w3.org/Graphics/SVG/1.1/DTD/svg11.dtd">
<svg version="1.1" id="Calque_1" xmlns="http://www.w3.org/2000/svg" xmlns:xlink="http://www.w3.org/1999/xlink" x="0px" y="0px"
	 width="480px" height="600px" viewBox="0 0 480 600" enable-background="new 0 0 480 600" xml:space="preserve">
<g opacity="0.65">
	<g>
		<path fill="#FFFFFF" d="M259.24,264.922c1.891,0.272,3.645,0.82,5.275,1.552c1.653,0.714,3.186,1.61,4.66,2.612
			c2.92,2.027,5.461,4.582,7.592,7.523c4.232,5.869,6.658,13.494,6.397,21.164c-0.203,7.675-3.034,15.067-7.448,20.666
			c-2.228,2.805-4.807,5.223-7.712,7.15c-1.465,0.955-2.976,1.814-4.595,2.519c-1.595,0.724-3.31,1.28-5.133,1.657l-0.891-0.807
			c1.917-2.26,3.703-4.621,5.312-7.087c1.639-2.443,3.107-4.993,4.334-7.646c2.467-5.286,4.034-10.995,4.139-16.79
			c0.22-5.788-1.022-11.581-3.275-16.95c-1.115-2.694-2.504-5.283-4.102-7.74c-1.568-2.467-3.353-4.857-5.371-6.943L259.24,264.922z
			"/>
	</g>
	<g>
		<path fill="#FFFFFF" d="M223.485,296.528c2.667-2.509,5.333-3.757,8-4.706c2.667-0.898,5.333-1.281,8-1.293
			c2.667-0.002,5.333,0.382,8,1.275c2.667,0.948,5.333,2.199,8,4.724c-2.667,2.524-5.333,3.775-8,4.724
			c-2.667,0.894-5.333,1.277-8,1.275c-2.667-0.012-5.333-0.395-8-1.293C228.818,300.285,226.152,299.037,223.485,296.528z"/>
	</g>
	<g>
		<path fill="#FFFFFF" d="M239.485,284.028c2.487,2,3.769,4,4.707,6c0.897,2,1.28,4,1.292,6c0.002,2-0.382,4-1.275,6
			c-0.936,2-2.221,4-4.724,6c-2.503-2-3.788-4-4.724-6c-0.894-2-1.277-4-1.275-6c0.012-2,0.395-4,1.292-6
			C235.717,288.028,236.998,286.028,239.485,284.028z"/>
	</g>
	<g>
		<path fill="#FFFFFF" d="M219.645,328.803c-1.891-0.272-3.645-0.82-5.275-1.552c-1.654-0.714-3.186-1.61-4.66-2.612
			c-2.92-2.026-5.461-4.582-7.592-7.523c-4.232-5.869-6.658-13.494-6.398-21.164c0.203-7.676,3.035-15.067,7.449-20.666
			c2.228-2.805,4.806-5.223,7.712-7.15c1.465-0.955,2.976-1.814,4.595-2.52c1.595-0.723,3.31-1.279,5.134-1.656l0.889,0.807
			c-1.916,2.26-3.702,4.621-5.312,7.087c-1.639,2.443-3.108,4.993-4.334,7.646c-2.467,5.286-4.035,10.995-4.14,16.79
			c-0.22,5.788,1.023,11.581,3.276,16.95c1.115,2.694,2.504,5.283,4.101,7.74c1.569,2.467,3.354,4.857,5.372,6.943L219.645,328.803z
			"/>
	</g>
	<g>
		<path fill="#FFFFFF" d="M306.241,208.732c2.007,1.073,3.827,2.363,5.692,3.637c1.805,1.33,3.56,2.73,5.295,4.168
			c3.471,2.877,6.678,6.055,9.746,9.388c6.098,6.698,11.406,14.208,15.801,22.327c1.086,2.035,2.125,4.104,3.113,6.203
			c0.969,2.107,1.855,4.256,2.704,6.428c1.725,4.336,3.063,8.832,4.217,13.391c1.128,4.566,1.891,9.231,2.442,13.928
			c0.47,4.705,0.65,9.447,0.55,14.182c-0.183,4.732-0.604,9.455-1.354,14.117c-0.814,4.65-1.811,9.26-3.189,13.742
			c-1.378,4.48-2.949,8.883-4.867,13.113c-0.949,2.117-1.917,4.219-2.985,6.266c-1.073,2.044-2.19,4.057-3.352,6.035
			c-9.411,15.775-21.927,29.115-36.669,39.109l-0.891-0.807c5.71-6.447,11.061-13.207,15.916-20.299
			c4.891-7.062,9.305-14.457,13.016-22.189c7.447-15.43,12.007-32.32,12.385-49.424c0.577-17.092-3.023-34.234-9.85-49.943
			c-3.399-7.867-7.577-15.4-12.366-22.52c-4.762-7.123-10.086-13.957-16.17-19.973L306.241,208.732z"/>
	</g>
	<g>
		<path fill="#FFFFFF" d="M175.085,392.136c-2.007-1.073-3.827-2.362-5.692-3.638c-1.805-1.33-3.56-2.729-5.295-4.166
			c-3.471-2.878-6.678-6.055-9.746-9.389c-6.098-6.699-11.406-14.208-15.801-22.327c-1.086-2.035-2.125-4.103-3.113-6.203
			c-0.97-2.106-1.855-4.257-2.704-6.428c-1.725-4.335-3.063-8.831-4.217-13.39c-1.128-4.566-1.891-9.232-2.442-13.929
			c-0.47-4.705-0.65-9.446-0.551-14.182c0.184-4.731,0.604-9.454,1.355-14.116c0.813-4.65,1.81-9.261,3.189-13.744
			c1.378-4.48,2.948-8.882,4.866-13.112c0.949-2.118,1.917-4.219,2.986-6.265c1.073-2.045,2.19-4.057,3.351-6.035
			c9.411-15.775,21.927-29.115,36.67-39.109l0.889,0.805c-5.709,6.448-11.06,13.209-15.914,20.301
			c-4.892,7.062-9.305,14.457-13.016,22.189c-7.448,15.429-12.007,32.319-12.386,49.424c-0.576,17.092,3.023,34.234,9.851,49.942
			c3.399,7.867,7.577,15.399,12.366,22.52c4.762,7.124,10.086,13.956,16.17,19.973L175.085,392.136z"/>
	</g>
</g>
</svg>
