<?xml version="1.0" standalone="no"?>
<!DOCTYPE svg PUBLIC "-//W3C//DTD SVG 1.1//EN" "http://www.w3.org/Graphics/SVG/1.1/DTD/svg11.dtd" >
<svg xmlns="http://www.w3.org/2000/svg">
<metadata></metadata>
<defs>
<font id="GrilledCheeseBTNWideRegular" horiz-adv-x="1706" >
<font-face units-per-em="2048" ascent="1638" descent="-410" />
<missing-glyph horiz-adv-x="834" />
<glyph horiz-adv-x="0" />
<glyph horiz-adv-x="2048" />
<glyph unicode=" "  horiz-adv-x="834" />
<glyph unicode="&#x09;" horiz-adv-x="834" />
<glyph unicode="&#xa0;" horiz-adv-x="834" />
<glyph unicode="!" horiz-adv-x="675" d="M100 74q0 57 86 95q77 34 170 34q97 0 177 -36q88 -40 88 -99q0 -60 -85 -97q-75 -32 -174 -32q-101 0 -177 34q-85 39 -85 101zM131 352l27 1086q0 5 6 10h405q6 -4 6 -8q0 -213 -7 -545q-10 -467 -11 -545q0 -7 -4 -10l-414 4q-8 6 -8 8z" />
<glyph unicode="&#x22;" horiz-adv-x="965" d="M106 737l13 621q0 5 4 8l301 -4v-8l-16 -617q0 -3 -2 -8l-293 -2q-7 5 -7 10zM537 737q2 166 5 331q6 291 15 298l295 -4q6 -4 6 -8l-18 -617q0 -3 -6 -8l-291 -2q-7 5 -6 10z" />
<glyph unicode="#" horiz-adv-x="1575" d="M-6 350l100 271h254l74 213h-258l98 270h258l129 366h289l-129 -366h227l129 366h289l-129 -366h256l-100 -270h-252l-76 -213h258l-100 -271h-254l-131 -366h-289l131 366h-227l-131 -366h-289l131 366h-258zM629 621h239l78 213h-239z" />
<glyph unicode="$" horiz-adv-x="1213" d="M51 948q0 93 107 169q93 66 241 106q40 7 121 22q32 6 24 74q-10 74 3 84h45q47 0 47 -10l-2 -129q0 -15 35 -17q113 -6 242.5 -52.5t195.5 -104.5q6 -6 6 -11q0 -6 -91.5 -91t-98.5 -87q-194 98 -264 98q-25 0 -25 -16l-4 -209q0 -10 22 -16q220 -64 319 -121 q148 -87 148 -209q0 -224 -305 -283q-13 -2 -164 -18q-26 -3 -26 -16v-123q0 -8 -92 -13q-13 12 -3 81q10 63 -18 71q-2 1 -16 2q-304 31 -438 159q-3 3 -3 7q0 2 91.5 84t101.5 88q203 -98 254 -98q26 0 26 16l5 213q0 10 -17 14q-53 13 -158 41q-309 97 -309 295zM373 909 q0 -57 123 -102q11 -4 16 -4q25 0 25 16v176q0 17 -23 17q-59 0 -102 -33q-39 -31 -39 -70zM631 373q0 -17 24 -17h7q63 0 102 34q37 31 37 75q0 66 -131 106q-7 2 -15 2q-24 0 -24 -16v-184z" />
<glyph unicode="%" horiz-adv-x="1903" d="M55 1059q0 143 91 248q111 131 317 131q175 0 275 -145q79 -113 79 -240q0 -125 -82 -230q-101 -129 -278 -129q-211 0 -316 122q-86 97 -86 243zM244 1047q0 -68 45 -125q56 -72 151 -72q96 0 150 72q43 57 43 125q0 67 -43 124q-55 70 -150 70t-151 -70 q-45 -58 -45 -124zM283 14v6l4 3l1102 1415l223 -4q6 -5 6 -9q-1 -4 -4 -8l-1102 -1403l-223 -8q-6 3 -6 8zM1067 367q0 142 91 248q112 130 319 130q175 0 276 -144q80 -113 80 -241q0 -124 -84 -228q-103 -128 -281 -128q-210 0 -316 120q-85 97 -85 243zM1264 356 q0 -68 43 -125q54 -71 149 -71t150 71q43 57 43 125t-44 124q-54 71 -149 71t-149 -71q-43 -56 -43 -124z" />
<glyph unicode="&#x26;" horiz-adv-x="1664" d="M68 334q0 272 340 385q16 5 16 16q0 3 -6 8q-225 187 -225 340q0 402 653 402q256 0 429 -100q179 -103 179 -265q0 -250 -545 -489q-8 -4 -8 -13q0 -10 6 -14q250 -176 260 -176q12 0 17 2q77 33 196 139q12 11 29 25q7 -3 101 -84t94 -86q0 -19 -102.5 -93.5 t-102.5 -78.5q0 -13 73.5 -56t73.5 -55q1 -9 0 -10q-60 -56 -186 -149q-15 7 -103 70q-79 57 -90 57q-12 0 -20 -5q-252 -131 -543 -131q-237 0 -389 106q-147 102 -147 255zM475 371q0 -53 49 -84t131 -31q120 0 236 55q12 6 12 13q0 8 -6 12q-253 172 -266 172h-10 q-61 -12 -103.5 -54t-42.5 -83zM565 1012q0 -104 88 -172q11 -9 23 -9q1 0 8 3q111 33 216 84q142 70 142 120q0 48 -59.5 83.5t-134.5 35.5q-111 0 -192 -36q-91 -41 -91 -109z" />
<glyph unicode="'" horiz-adv-x="480" d="M84 737l12 621q0 3 6 8l299 -4q5 -5 5 -8l-17 -617q0 -3 -6 -8l-293 -2q-6 5 -6 10z" />
<glyph unicode="(" horiz-adv-x="646" d="M102 743q0 189 46 375q56 230 163 357q1 0 6 4l263 -6l6 -9q-2 -1 -4 -4q-154 -342 -154 -731q0 -416 119 -747v-7q-1 -5 -4 -8l-248 -6q-1 2 -2 6q-95 134 -147 380q-44 204 -44 396z" />
<glyph unicode=")" horiz-adv-x="646" d="M102 1464l7 9l262 6q2 -2 6 -4q107 -127 163 -357q46 -186 46 -375q0 -192 -44 -396q-52 -246 -147 -380q0 -2 -2 -6l-248 6q-3 3 -4 8v7q119 331 119 747q0 389 -154 731q0 1 -4 4z" />
<glyph unicode="*" horiz-adv-x="1013" d="M68 915q1 3 6 7l237 67q15 4 15 15t-17 16l-231 63q-6 6 -6 11q0 7 67.5 101t73.5 97l170 -143q7 -6 18 -6q27 0 27 16q0 5 -26 103.5t-29 103.5l6 8l260 -4q8 -5 8 -10q0 -2 -49 -146q-18 -54 -18 -53q0 -16 24 -16t103.5 73.5t87.5 73.5l2 -2l26 -35q113 -147 113 -161 q0 -6 -6 -11l-236 -63q-16 -5 -16 -16q0 -10 16 -15l238 -67q4 -3 4 -9q0 -7 -63 -101.5t-68 -96.5q-189 155 -203 155q-27 0 -27 -16l7 -25q45 -179 45 -186q0 -4 -6 -8h-254q-5 3 -5 8q0 11 56 195q4 13 4 14q0 16 -27 16q-23 0 -105.5 -75.5t-90.5 -75.5l-23 31 q-108 148 -108 167z" />
<glyph unicode="+" d="M254 475v273h459v473h280v-473h459v-273h-459v-475h-280v475h-459z" />
<glyph unicode="," horiz-adv-x="685" d="M68 139v4q0 58 86 96q77 33 172 33q96 0 175 -36q87 -39 87 -99q0 -170 -299 -262q-6 5 -6 8q0 5 17.5 40t14.5 65l2 -2q0 19 -21.5 21.5t-64.5 8.5q-163 37 -163 123z" />
<glyph unicode="-" horiz-adv-x="819" d="M72 377v155q2 132 12 140h657q7 -5 7 -10v-287q-1 -6 -5 -8h-665q-7 5 -6 10z" />
<glyph unicode="." horiz-adv-x="685" d="M68 133q0 57 86 94q77 33 172 33q97 0 175 -35q87 -39 87 -98t-87 -97q-77 -34 -173 -34q-102 0 -177 35q-83 40 -83 102z" />
<glyph unicode="/" horiz-adv-x="1100" d="M61 29q0 -1 125 288l445 1022q15 41 39 84l334 -4q2 -1 2 -8q0 -9 -115 -268q-45 -102 -451 -1010q-20 -50 -51 -104l-321 -9q-6 6 -7 9z" />
<glyph unicode="0" horiz-adv-x="1669" d="M39 680q0 292 190 513q233 269 656 269q272 0 467 -171q152 -133 223 -330q49 -137 49 -289q0 -258 -173 -472q-213 -263 -581 -263q-434 0 -653 245q-178 199 -178 498zM489 662q0 -123 81 -232q100 -135 272 -135q171 0 271 135q79 108 79 232q0 122 -80 230 q-99 134 -270 134q-172 0 -272 -134q-81 -108 -81 -230z" />
<glyph unicode="1" horiz-adv-x="649" d="M94 14l23 1416q-1 2 2 8l463 -6q4 -4 4 -11l-39 -1401q0 -3 -6 -8l-445 -8q-2 2 -2 10z" />
<glyph unicode="2" horiz-adv-x="1454" d="M28 1230q0 6 1 7q103 118 280 198q194 87 391 87q695 0 695 -480q0 -216 -222 -356q-101 -64 -411 -175q-221 -80 -221 -149q0 -16 24 -16h738q2 -1 2 -10v-324q0 -9 -2 -10h-1264q-6 4 -6 248q0 422 616 598q266 76 266 143q0 96 -155 96q-112 0 -240 -58 q-52 -24 -198 -111h-5l-288 305q-1 1 -1 7z" />
<glyph unicode="3" horiz-adv-x="1406" d="M-6 207q0 7 287 282q200 -98 205 -100q130 -55 237 -55q158 0 158 92q0 141 -267 141q-36 0 -141 -4q-3 3 -6 8v310q0 5 6 8q81 -2 109 -2q299 0 299 143q0 80 -144 80q-200 0 -454 -152l-287 281q-2 2 -2 8q0 7 2 8q104 109 285 180q189 74 381 74q265 0 481.5 -132 t216.5 -300q0 -112 -53.5 -192t-180.5 -156q-10 -6 -10 -12t10 -12q125 -77 177 -147q57 -77 57 -181q0 -430 -698 -430q-189 0 -380 74q-184 72 -286 178q-2 2 -2 8z" />
<glyph unicode="4" horiz-adv-x="1500" d="M-61 332q0 2 630 1083q0 2 2 4l721 8q6 -4 6 -8l-6 -776q0 -16 27 -16h129q6 -5 6 -9v-286q0 -4 -6 -8h-133q-25 0 -25 -17l-4 -291q0 -4 -6 -8l-446 -12q-5 4 -9 311q0 17 -24 17h-858q-4 2 -4 8zM563 643q0 -16 23 -16h219q20 0 20 16v356q0 17 -24 17q-16 0 -23 -10 l-78 -127q-137 -224 -137 -236z" />
<glyph unicode="5" horiz-adv-x="1502" d="M57 190q0 7 136 137q130 124 155 144q229 -135 391 -135q92 0 155 45q60 43 60 102q0 217 -440 217q-157 0 -389 -36q-8 1 -8 10l-4 784q0 6 6 10h1167q6 -4 6 -8v-286q0 -5 -6 -9h-676q-24 0 -24 -16l-4 -180q-1 -17 26 -17h6q30 0 85.5 7.5t84.5 7.5q345 0 509 -177 q132 -143 132 -380q0 -199 -193 -337q-201 -143 -509 -143q-189 0 -378 76q-177 71 -284 178q-2 2 -4 6z" />
<glyph unicode="6" horiz-adv-x="1541" d="M16 653q0 369 279 588q303 238 868 238q27 0 29 -9l72 -391q0 -4 -4 -10q-103 4 -150 4q-238 0 -399.5 -82.5t-208.5 -230.5q-19 -58 -19 -96q0 -19 25 -19q10 0 18 4q255 131 496 131q221 0 356 -116q121 -104 121 -250q0 -207 -168 -327q-177 -126 -497 -126 q-401 0 -626 228q-192 194 -192 464zM537 442q0 -3 4 -8q96 -135 317 -135q95 0 155 36.5t60 96.5q0 52 -49 89q-52 40 -131 40q-86 0 -184 -30q-103 -31 -169 -80q-3 -3 -3 -9z" />
<glyph unicode="7" horiz-adv-x="1319" d="M33 1118v285q0 9 2 10h1292q4 -3 4 -8q0 -8 -125 -266l-485 -996q-58 -117 -66 -123l-452 -8q-4 4 -4 6q0 8 88 189q26 53 360 733l76 154q0 16 -25 16h-663q-2 1 -2 8z" />
<glyph unicode="8" horiz-adv-x="1447" d="M39 381q0 186 237 324q11 5 11 12q0 6 -11 12q-237 138 -237 324q0 179 197.5 302.5t480.5 123.5q130 0 266 -37q194 -53 303 -154q113 -103 113 -235q0 -184 -242 -324q-10 -6 -10 -12q0 -7 10 -12q242 -140 242 -324q0 -132 -109.5 -233.5t-302.5 -153.5 q-143 -39 -270 -39q-283 0 -480.5 123t-197.5 303zM469 459q0 -56 83 -89q72 -28 165 -28t164 28q84 33 84 89q0 55 -84 89q-72 30 -164 30t-165 -30q-83 -34 -83 -89zM469 1004q0 -56 83 -90q73 -29 165 -29t164 29q84 34 84 90q0 55 -84 88q-71 28 -164 28t-165 -28 q-83 -33 -83 -88z" />
<glyph unicode="9" horiz-adv-x="1512" d="M27 973q0 197 158 342q179 164 474 164q400 0 624 -230q190 -194 190 -465q0 -348 -266 -546q-275 -206 -812 -228h-28q-22 0 -23 6l-61 342q-1 6 4 11l6 2q175 -6 160 -6q215 0 363 68q156 71 204 202q18 50 18 90q0 16 -24 16q-13 0 -17 -2q-254 -131 -501 -131 q-221 0 -352 115q-117 104 -117 250zM446 956q0 -52 49 -88q51 -39 132 -39q75 0 184 30q124 33 166 77q4 4 4 10q1 5 0 6q-96 135 -322 135q-95 0 -154 -35t-59 -96z" />
<glyph unicode=":" horiz-adv-x="685" d="M74 133q0 57 86 94q78 33 172 33q97 0 175 -35q87 -39 87 -98t-86 -97q-78 -34 -174 -34q-102 0 -177 35q-83 40 -83 102zM74 715q0 57 86 94q77 33 172 33q97 0 175 -35q87 -39 87 -98t-86 -96q-77 -33 -174 -33q-102 0 -177 34q-83 38 -83 101z" />
<glyph unicode=";" horiz-adv-x="685" d="M72 139v4q0 58 85 96q76 33 171 33q97 0 176 -36q88 -39 88 -99q0 -170 -299 -262q-6 5 -6 8q0 5 16.5 40t13.5 65l5 -2q0 19 -22 21.5t-64 8.5q-164 37 -164 123zM72 727q0 57 85 94q76 33 171 33q98 0 176 -35q88 -38 88 -98q0 -59 -87 -97q-77 -34 -173 -34 q-102 0 -177 35q-83 40 -83 102z" />
<glyph unicode="&#x3c;" d="M264 471v281l1178 487v-301l-801 -328l801 -327v-299z" />
<glyph unicode="=" d="M254 240v272h1198v-272h-1198zM254 711v272h1198v-272h-1198z" />
<glyph unicode="&#x3e;" d="M264 -16v299l801 327l-801 328v301l1178 -487v-281z" />
<glyph unicode="?" horiz-adv-x="1512" d="M40.5 1236.5q-0.5 6.5 0.5 6.5q108 120 282 198q192 87 392 87q694 0 694 -477q0 -115 -101 -234q-58 -68 -218 -201q-181 -149 -232 -270q0 -3 -2 -8h-489q-1 1 -2.5 3t-2.5 7q0 134 148 270q35 33 273 207q147 108 147 172q0 97 -158 97q-96 0 -206 -44 q-72 -29 -158 -82q-71 -44 -76 -44l-291 305q0 1 -0.5 7.5zM356 68q0 56 87 94q77 33 171 33q98 0 177 -35q88 -39 88 -99q0 -58 -88 -97q-78 -34 -175 -34q-101 0 -176 36q-84 39 -84 102z" />
<glyph unicode="@" horiz-adv-x="2048" d="M70 520q0 357 219 617q150 177 362 271.5t461 94.5q361 0 602 -185q264 -204 264 -554q0 -173 -67 -314.5t-197 -242.5q-145 -113 -328 -113q-112 0 -168 37t-65 117q-61 -83 -127 -117.5t-162 -34.5q-344 0 -344 350q0 234 131 398q141 178 369 178q153 0 221 -111 l49 82h242l-156 -626q-3 -14 -4 -19v-12q0 -49 47 -49q151 0 250 168q84 143 84 305q0 256 -196 399q-175 127 -441 127q-289 0 -491 -141q-322 -225 -322 -619q0 -295 199 -469t536 -174q324 0 586 187l115 -160q-322 -240 -723 -240q-191 0 -354 54q-166 53 -295 157 q-297 238 -297 639zM801 440q0 -151 117 -151q79 0 138 64q50 56 70 141l48 194q-7 66 -43.5 104.5t-90.5 38.5q-115 0 -184 -145q-55 -117 -55 -246z" />
<glyph unicode="A" horiz-adv-x="1548" d="M12 -20q190 710 394 1429h733q4 -3 6 -8l387 -1480q-2 7 -4 13q0 -3 -6 -8l-471 6q-2 2 -60 285q-3 14 -26 14h-390q-23 0 -26 -14q-23 -120 -60 -248l-473 -2q-4 4 -4 9v4zM633 549q0 -17 22 -17h238q22 0 22 17v2l-108 512q-3 14 -23 14q-21 0 -24 -14z" />
<glyph unicode="B" horiz-adv-x="1476" d="M61 1436q0 6 2 8h49h64q84 2 113 2q498 0 759 -75q377 -107 377 -382q0 -172 -235 -309q-10 -6 -10 -12q0 -9 10 -15q237 -137 237 -309q0 -274 -376 -382q-260 -75 -758 -75q-29 0 -113 2q-36 0 -64 0.5t-48 -0.5q-5 3 -5 9zM575 1141l5 -344q0 -17 28 -17q38 0 109 11 q266 38 266 172q0 194 -381 194q-27 0 -27 -16zM580 193q0 -17 24 -17q163 0 263 45q116 52 116 152q0 133 -266 170q-74 10 -109 10q-28 0 -28 -16v-344z" />
<glyph unicode="C" horiz-adv-x="1551" d="M49 659q0 377 275 595q297 235 862 235h22q20 0 21 -6l67 -396q1 -1 -4 -8h-2q-26 0 -80.5 2t-81.5 2q-292 0 -458 -122q-156 -116 -156 -306q0 -146 102 -234q115 -99 336 -99q232 0 453 124q2 -2 41 -169.5t39 -178.5q0 -4 0.5 -6t-0.5 -2q-86 -78 -245 -121 q-145 -39 -308 -39q-442 0 -680 234q-203 199 -203 495z" />
<glyph unicode="D" horiz-adv-x="1473" d="M61 1436q0 6 2 8q627 0 979 -183q383 -200 383 -593t-381 -594q-352 -185 -976 -185q-5 3 -5 9zM565 315q0 -16 27 -16q171 0 268 137q76 107 76 232t-76 232q-97 136 -268 136q-27 0 -27 -16v-705z" />
<glyph unicode="E" horiz-adv-x="1317" d="M74 1419q0 6 4 8h1169q6 -4 6 -8v-286q0 -4 -6 -9h-678q-26 0 -26 -14v-242q0 -14 26 -14h537q6 -4 6 -10v-285q0 -3 -6 -8h-541q-24 0 -24 -16l-4 -224q-1 -16 26 -16h684q6 -4 6 -8v-285q0 -4 -6 -8h-1163q-10 7 -10 1425z" />
<glyph unicode="F" horiz-adv-x="1293" d="M63 -37l4 798q4 621 13 628l1167 -9q4 -3 4 -10v-285q0 -4 -6 -8l-676 6q-28 1 -28 -16l-4 -240q-1 -16 26 -16l541 -4q2 -2 2 -8q1 -41 1 -82q0 -104 -7 -213l-543 4q-26 0 -27 -16v-284q-1 -249 -10 -255l-452 2q-5 3 -5 8z" />
<glyph unicode="G" horiz-adv-x="1553" d="M49 659q0 361 278 565.5t859 262.5l20 2h6q15 0 17 -8l67 -394q1 -1 -4 -8l-2 -2q-150 6 -145 6q-303 0 -472 -124q-161 -118 -161 -316q0 -137 68 -222q89 -112 282 -112q165 0 164 33l-6 178q-1 15 -29 15l-213 -5q-6 6 -6 11q1 101 10 211l678 39q3 -1 2 -9l27 -682 q1 -4 1 -6t-1 -2q-83 -74 -253 -117q-152 -38 -312 -38q-439 0 -674 230q-201 197 -201 492z" />
<glyph unicode="H" horiz-adv-x="1522" d="M74 1425q0 4 6 9l463 -2q6 -5 6 -9l-6 -614q0 -16 26 -16h396q26 0 26 16q0 -5 -2 184q-2 182 -2 286q0 150 6 155l463 -2q4 -4 4 -9l-12 -1400q0 -6 -4 -9l-447 -14q-2 2 -6 473q0 16 -26 16h-406q-22 0 -22 -16l-2 -450q0 -3 -9 -9l-442 -14q-6 3 -6 8z" />
<glyph unicode="I" horiz-adv-x="649" d="M80 -29l22 1413q1 8 4 11l463 -6q3 -2 2 -11l-36 -1401q-1 -2 -9 -8l-442 -8q-4 3 -4 10z" />
<glyph unicode="J" horiz-adv-x="1524" d="M68 510q0 181 10 188l463 -41q5 -2 6 -10q-4 -29 -4 -117q0 -231 207 -231q211 0 215 287l10 782q-1 4 2 10l477 -20q2 -2 2 -8l-22 -801q-18 -608 -695 -608q-671 0 -671 569z" />
<glyph unicode="K" horiz-adv-x="1555" d="M57 1368q0 4 6 8l508 2q5 -3 4 -8l-6 -555q0 -16 29 -16q15 0 23 10l385 543l507 -11q5 -4 5 -8v-8q-496 -629 -496 -635t45 -74q410 -617 410 -626q-2 -4 -9 -8l-520 -19q-4 2 -6 4l-295 537q-5 10 -22 10q-60 0 -60 -20v-91q0 -183 -6 -370l-487 -25q-4 3 -9 8z" />
<glyph unicode="L" horiz-adv-x="1271" d="M45 1380q0 4 6 9l457 8q6 -5 6 -8l4 -1074q0 -16 25 -16h663q8 -4 8 -10v-285q0 -4 -8 -8h-1143q-6 4 -6 8z" />
<glyph unicode="M" horiz-adv-x="1883" d="M57 6l68 1383q0 7 6 10l479 -2q3 -2 303 -779q5 -12 25 -12q18 0 23 12l299 775q1 2 8 4l479 2q6 -5 6 -10l64 -1377q-1 -5 -5 -8l-403 -22q-3 1 -10 8l-19 815q0 16 -30 16q-19 0 -23 -12l-256 -774q-1 -4 -6 -6h-254q-3 2 -264 780q-4 12 -27 12q-22 0 -22 -16 q-6 -406 -25 -823l-410 14q-6 4 -6 10z" />
<glyph unicode="N" horiz-adv-x="1522" d="M72 1374q0 7 6 12l442 -2v-4l455 -821q7 -12 24 -12q27 0 27 16l-4 811q0 7 6 12l426 -2q2 -1 2 -10q-3 -701 -12 -1409l-430 -14q-1 1 -457 829q-7 13 -22 13q-27 0 -27 -17l-10 -803q-2 -6 -6 -8l-412 -14q-6 3 -6 10z" />
<glyph unicode="O" horiz-adv-x="1669" d="M39 637q0 292 190 513q233 269 656 269q272 0 467 -171q152 -133 223 -330q49 -137 49 -289q0 -258 -173 -472q-213 -263 -581 -263q-434 0 -653 245q-178 199 -178 498zM489 618q0 -122 81 -230q100 -134 272 -134q171 0 270 134q80 108 80 230q0 123 -80 231 q-99 134 -270 134q-172 0 -272 -134q-81 -108 -81 -231z" />
<glyph unicode="P" horiz-adv-x="1420" d="M61 1468q0 5 7 9q354 0 591 -27q387 -43 552 -181q159 -133 159 -392q0 -193 -139 -336q-150 -154 -426 -211q-72 -15 -219 -27q-27 -2 -27 -14q0 -158 -10 -324l-475 -28q-6 3 -6 10zM565 627q0 -17 29 -17q31 0 104 15q254 49 254 215q0 111 -88 176q-94 69 -266 69 q-26 0 -27 -16z" />
<glyph unicode="Q" horiz-adv-x="1693" d="M45 653q0 293 190 513q233 270 656 270q269 0 464 -168q152 -131 224 -326q51 -137 51 -297q0 -366 -311 -600q-6 -5 -6 -12q0 -6 107.5 -135t107.5 -140q-1 -5 -6 -8l-525 -20q-3 1 -135 172q-7 9 -22 10q-75 4 -224 25q-306 68 -454 295q-117 179 -117 421zM496 635 q0 -122 80 -230q101 -135 272 -135t272 135q80 108 80 230t-80 230q-101 134 -272 134t-272 -134q-80 -108 -80 -230z" />
<glyph unicode="R" horiz-adv-x="1502" d="M86 1397q0 5 10 8q87 27 387 27q504 0 717 -205q154 -148 154 -342q0 -278 -287 -465q-8 -6 -8 -10q0 -14 197.5 -229t197.5 -230q0 -5 -6 -8l-490 -15l-342 394q-8 10 -22 10q-24 0 -25 -17l-4 -350q0 -7 -6 -10l-459 -25q-6 4 -6 9zM575 604q0 -16 23 -16h6 q137 15 214 81q75 63 75 152q0 152 -188 201q-48 12 -97 12q-26 0 -26 -16z" />
<glyph unicode="S" horiz-adv-x="1517" d="M57 172q0 4 291 281l206 -100q129 -54 237 -54q157 0 157 88q0 61 -226 121q-308 81 -422 144q-226 125 -226 343q0 167 218 300q215 130 480 130q194 0 382 -73q180 -70 286 -178q3 -4 4 -9q0 -5 -289 -291q-241 154 -461 154q-141 0 -141 -80q0 -53 226 -124 q306 -96 420 -161q226 -130 226 -323q0 -430 -702 -430q-188 0 -378 75q-180 72 -284 179q-3 3 -4 8z" />
<glyph unicode="T" horiz-adv-x="1355" d="M35 1040v285q0 7 4 10h1280q6 -3 6 -10v-285q0 -5 -6 -8h-358q-25 0 -25 -16l10 -1065q0 -3 -8 -8l-463 -9q-2 2 -2 9v1073q0 16 -27 16h-407q-4 3 -4 8z" />
<glyph unicode="U" horiz-adv-x="1524" d="M63 496q0 76 15 825q0 5 6 8l473 -22l6 -9q-1 -2 -6 -168q-16 -528 -16 -536v-68q0 -262 204 -262q138 0 187 109q27 60 29 180l10 752q0 5 4 8l475 10q4 -3 4 -8l-22 -801q-18 -606 -695 -606q-674 0 -674 588z" />
<glyph unicode="V" horiz-adv-x="1524" d="M18 1413q0 4 9 10l465 -6q8 -6 213 -1040q2 -15 22 -15q21 0 25 15q121 515 254 1038l471 2q6 -5 6 -11q0 -39 -377 -1367h-735q-3 1 -4 8z" />
<glyph unicode="W" horiz-adv-x="1859" d="M18 1382q0 2 9 9h395q4 -3 80 -908q1 -16 22 -16q25 0 29 14q99 377 203 760h334q2 -1 4 -6l188 -754q4 -14 31 -14q21 0 22 16l80 910q1 5 6 8l400 -19q6 -4 6 -10l-133 -1405q-1 -5 -6 -8l-488 -16q-3 1 -4 4l-250 612q-5 12 -26 12q-18 0 -23 -12q-119 -304 -250 -616 l-465 16q-2 2 -164 1423z" />
<glyph unicode="X" horiz-adv-x="1435" d="M27 31q0 2 -0.5 3.5t0.5 2.5q446 676 446 680q0 2 -446 667l-1 2q0 2 1 5q0 6 2 8h467q87 -133 188 -289q7 -10 27 -10q15 0 22 10q90 139 193 289h467q6 -5 6 -8q0 -13 -225.5 -335.5t-225.5 -338.5q0 -7 445 -680q2 -3 2 -6q0 -6 -2 -8l-445 -17q-99 149 -215 322 q-7 10 -22 10q-20 0 -27 -10q-105 -160 -215 -322l-440 17q-2 1 -2 8z" />
<glyph unicode="Y" horiz-adv-x="1587" d="M35 1329q1 4 6 8l496 -6q4 -1 6 -4l217 -592q4 -12 24 -12q22 0 27 12q122 296 250 596h498q3 -3 4 -8q0 -16 -480 -842q-57 -99 -57 -102l6 -414q0 -4 -6 -8l-491 -8q-5 3 -5 430q0 -1 -55 104q-440 837 -440 846z" />
<glyph unicode="Z" horiz-adv-x="1473" d="M68 334q-1 5 768 629q6 5 6 10q0 16 -25 16l-731 15q-6 4 -6 10l-12 352q-1 5 4 8l1327 2q4 -3 4 -10v-393q-1 -4 -4 -6l-760 -617q-6 -5 -6 -10q0 -16 26 -16l740 2q1 -1 2.5 -3t1.5 -6v-368q0 -7 -4 -10l-1315 14q-4 3 -4 10z" />
<glyph unicode="[" horiz-adv-x="909" d="M78 1579q0 4 6 8l745 2q11 -6 11 -10v-252q0 -5 -6 -8h-310q-26 0 -26 -16l-9 -1276q0 -17 25 -17h320q6 -3 6 -8v-254q0 -7 -6 -10h-748q-6 4 -6 10z" />
<glyph unicode="\" horiz-adv-x="1100" d="M62 1411q0 -9 115 -268q45 -102 450 -1010q20 -50 51 -104l322 -9q6 6 6 9q0 -1 -125 288l-444 1022q-16 41 -39 84l-334 -4q-2 -1 -2 -8z" />
<glyph unicode="]" horiz-adv-x="909" d="M78 0q0 5 6 8h309q27 0 27 17l8 1275q0 17 -25 17h-319q-6 3 -6 8v254q0 7 6 10h747q7 -4 7 -10l2 -1831q0 -3 -6 -8l-746 -2q-10 7 -10 10v252z" />
<glyph unicode="^" horiz-adv-x="2048" d="M412 897l442 565h338l442 -565h-303l-307 309l-309 -309h-303z" />
<glyph unicode="_" horiz-adv-x="1024" d="M0 -201h1024v-282h-1024v282z" />
<glyph unicode="`" horiz-adv-x="1608" d="M555 1313q0 5 180 131h2q316 -351 316 -352q0 -8 -6 -13l-109 -88h-4l-377 314q-2 1 -2 8z" />
<glyph unicode="a" horiz-adv-x="1283" d="M41 256q0 171 206 263q180 79 460 79q26 0 78.5 -5t76.5 -5q25 0 25 80q0 56 -49 99q-54 48 -140 48q-117 0 -178 -86q-4 -8 -16 -22l-363 -41q-5 2 -6 8q2 1 4 4q161 342 533 342q536 0 536 -381q0 -100 -20 -415q-22 -346 -37 -355l-311 -2q-6 3 -6 10q0 17 4 50.5 t4 49.5q0 17 -25 17q-3 0 -10 -2q-158 -43 -305 -43q-222 0 -341.5 81.5t-119.5 225.5zM485 252q0 -121 213 -121q156 0 158 27l14 213q2 22 -137 22q-109 0 -176 -35q-72 -38 -72 -106z" />
<glyph unicode="b" horiz-adv-x="1341" d="M35 1436q0 5 6 10l422 2q3 -3 10 -490q0 -16 25 -16q6 0 46.5 5t65.5 5q312 0 503 -164q173 -148 173 -354q0 -192 -128 -333q-154 -171 -435 -171q-101 0 -203 41q-5 2 -16 2q-26 0 -25 -16l6 -135q1 -4 -10 -8l-373 6q-6 4 -6 10zM475 223q0 -28 129 -28q215 0 215 178 q0 97 -80 153q-84 58 -235 58q-29 0 -29 -17v-344z" />
<glyph unicode="c" horiz-adv-x="996" d="M51 422q0 234 139 390q171 192 510 192q49 0 123 -9q97 -12 97 -28v-351q0 -1 -5 -8q-20 1 -62 4.5t-65 3.5q-335 0 -335 -217q0 -192 329 -192q27 0 80 6t80 6q5 -3 4 -10l-14 -240q-2 -24 -176 -24q-318 0 -515 138q-190 134 -190 339z" />
<glyph unicode="d" horiz-adv-x="1365" d="M39 428q0 211 167 360q187 166 505 166q27 0 72.5 -8t52.5 -8q26 0 26 16q7 242 23 492l424 -10q6 -5 6 -11l-103 -1605q0 -6 -4 -8l-374 -2q-7 5 -7 32q0 21 4 56q2 15 2 28q0 43 -28 43q-9 0 -14 -2q-92 -35 -193 -35q-279 0 -432 167q-127 139 -127 329zM502 369 q0 -174 215 -174q122 0 123 24l8 346q0 17 -25 17q-321 0 -321 -213z" />
<glyph unicode="e" horiz-adv-x="1090" d="M49 463q0 218 103 401q142 252 419 252q461 0 461 -485q0 -46 -22 -134q-27 -105 -58 -120l-536 16q-27 1 -27 -18q0 -25 27 -78q75 -150 301 -150q124 0 303 54q5 -4 14 -106q8 -96 8 -124q-5 -23 -130 -41q-101 -14 -160 -14q-346 0 -536 168q-167 149 -167 379z M385 543q0 -19 27 -19l303 8q53 2 53 125q0 150 -154 150q-117 0 -181 -101q-48 -76 -48 -163z" />
<glyph unicode="f" horiz-adv-x="931" d="M41 827q0 1 8 9l144 -7q28 -1 28 17q0 33 -4 99t-4 99q0 90 12 142q41 172 178 278q159 123 414 123q205 0 205 -33v-321q0 -5 -2 -8q-19 0 -62 3q-39 3 -61 3q-303 0 -317 -195l-15 -190q-1 -15 27 -17l264 -12q6 -5 6 -8q-2 -133 -14 -274l-234 10q-10 0 -18 -5t-8 -12 l6 -706q0 -5 -8 -8l-383 2q-7 4 -6 8l24 756q1 15 -24 16l-125 4q-6 5 -19 106q-12 97 -12 121z" />
<glyph unicode="g" horiz-adv-x="1317" d="M45 530q0 205 157 342q176 154 486 154q22 0 63 -6t56 -6q27 0 27 30q0 9 -2.5 28t-2.5 27q0 14 7 19l405 -2q10 -8 10 -282q0 -252 -14 -646l-8 -222q-7 -128 -29 -222q-40 -170 -177 -277q-160 -124 -413 -124q-209 0 -209 34v322q1 8 7 8q19 0 58.5 -4t59.5 -4 q150 0 235 51t85 146v149q0 16 -27 16q-8 0 -78.5 -14t-115.5 -14q-289 0 -447 164q-133 138 -133 333zM508 469q0 -172 242 -172q90 0 90 20l-4 349q-1 16 -25 16q-145 0 -227 -62q-76 -57 -76 -151z" />
<glyph unicode="h" horiz-adv-x="1331" d="M78 1581q0 7 2 8h389q7 -5 10 -674q0 -16 25 -16q9 0 49 28q50 34 96 51q72 28 158 28q269 0 384 -206q77 -137 77 -349q0 -76 -13 -326q-13 -265 -20 -272l-383 20q-4 4 -4 8q8 531 8 570q0 243 -168 243q-154 0 -203 -92l-2 -6l6 -698q1 -5 -6 -9l-397 -6q-2 2 -2 8z " />
<glyph unicode="i" horiz-adv-x="675" d="M84 1133q0 76 67 135q74 65 189 65q118 0 194 -66q70 -59 70 -137q0 -76 -67 -136q-74 -66 -189 -66q-117 0 -194 67q-70 60 -70 138zM129 -94q4 436 18 878l5 2l413 -4q7 -4 6 -8l-28 -866q0 -3 -2 -8l-406 -2q-6 4 -6 8z" />
<glyph unicode="j" horiz-adv-x="704" d="M-270 -328q0 9 10 9q20 0 59.5 -4.5t59.5 -4.5q145 0 230.5 51.5t84.5 143.5l-12 938q0 7 2 8l405 -2q6 -4 6 -8q0 -458 -12 -719q-6 -142 -10 -183q-8 -103 -27 -182q-40 -173 -172 -278q-157 -125 -411 -125q-213 0 -213 35v321zM106 1188q0 76 67 135q74 66 189 66 q117 0 193 -67q70 -60 70 -136t-68 -136q-75 -67 -190 -67q-117 0 -192 67q-69 61 -69 138z" />
<glyph unicode="k" horiz-adv-x="1295" d="M84 -154l25 1584q0 4 4 6l417 12q5 -3 5 -8l-68 -893q10 -17 25 -17q16 0 22 11l277 467l409 4q6 -5 6 -8q0 -9 -325 -580q-25 -43 -25 -47q0 -15 209 -238t209 -243q0 -5 -4 -9l-428 -16l-2 2l-326 303q-9 8 -18 8q-28 0 -27 -16q0 -2 6 -107q10 -165 10 -231 q0 -5 -6 -8l-393 16q-2 2 -2 8z" />
<glyph unicode="l" horiz-adv-x="625" d="M100 -43v1417q0 7 2 8h445q2 -1 2 -10l-12 -1401q0 -6 -7 -10l-424 -12q-6 3 -6 8z" />
<glyph unicode="m" horiz-adv-x="2156" d="M61 1071q0 7 2 8l388 6q10 -5 10 -28q0 -10 -2.5 -33t-2.5 -34q0 -40 29 -40q11 0 19 6q88 73 133 98q87 50 182 50q232 0 348 -154q5 -6 45 -67q7 -11 19 -11q17 0 66 54q62 67 119 100q94 53 220 53q461 0 461 -575q0 -48 -15 -284q-17 -250 -24 -253l-379 23l-8 8 q-1 12 -1 26q0 29 3 67q6 79 6 93q7 201 7 351q0 233 -164 233q-210 0 -242 -164v-39q0 -316 -16 -549q-1 -5 -4 -8l-379 -6q-6 5 -7 8l-4 531q-2 252 -170 252q-179 0 -227 -138v-6l19 -622q0 -7 -3 -9l-399 -12q-2 2 -29 1065z" />
<glyph unicode="n" horiz-adv-x="1350" d="M74 1079q0 4 6 8h389q7 -5 7 -20q0 -9 -3 -29.5t-3 -29.5q0 -31 28 -31q9 0 53 32q54 40 103 60q78 33 171 33q461 0 461 -555q0 -105 -26 -561q-1 -7 -7 -11l-383 19q-2 2 -2 10q6 383 6 545q0 242 -167 242q-181 0 -232 -134v-4l10 -624q0 -7 -2 -9l-397 -6q-6 5 -6 9z " />
<glyph unicode="o" horiz-adv-x="1215" d="M49 489q0 225 93 373q132 211 429 211q316 0 475 -184q128 -148 128 -367q0 -202 -104 -349q-137 -196 -415 -196q-315 0 -474 163q-132 135 -132 349zM395 467q0 -182 197 -182q109 0 164 84q41 62 41 143q0 71 -41 120q-52 62 -154 62q-104 0 -162 -85 q-45 -66 -45 -142z" />
<glyph unicode="p" horiz-adv-x="1365" d="M74 1122q0 6 4 8l426 5q4 -5 4 -54q0 -16 27 -16q6 0 49.5 6t70.5 6q154 0 283 -43q195 -65 297 -201q90 -121 90 -274q0 -192 -126 -332q-153 -170 -433 -170q-113 0 -207 39q-5 2 -16 2q-25 0 -25 -16l6 -574q0 -5 -6 -10l-373 10q-6 4 -6 9zM512 692l2 -344 q0 -29 133 -29q215 0 215 179q0 98 -86 154.5t-239 56.5q-25 0 -25 -17z" />
<glyph unicode="q" horiz-adv-x="1372" d="M55 551q0 209 168 358q189 166 504 166q28 0 71.5 -6t49.5 -6q20 0 23 13q-1 -3 -1 24q0 41 15 51l424 -14q4 -5 4 -11l-105 -1601q0 -7 -2 -8l-372 -2q-9 5 -9 8l17 551q0 16 -25 16q-7 0 -12 -2q-93 -35 -191 -35q-278 0 -431 168q-128 139 -128 330zM514 489 q0 -174 219 -174q118 0 119 25l12 346q1 16 -39 16q-150 0 -230.5 -57.5t-80.5 -155.5z" />
<glyph unicode="r" horiz-adv-x="1001" d="M68 1149q0 6 4 8h389q9 -3 12 -81q1 -46 2 -93q1 -16 27 -16q5 0 63 33q69 40 130 62q94 34 186 34q61 0 61 -13q6 -268 6 -286q0 -6 -6 -11q-110 0 -249 -35q-184 -46 -197 -122q4 0 12 -23q10 -36 16 -94q13 -122 13 -387q0 -139 -7 -143l-391 -7q-8 5 -8 9z" />
<glyph unicode="s" horiz-adv-x="1184" d="M45 127q0 5 221 215q150 -72 167 -79q105 -42 192 -42q131 0 131 78q0 52 -182 101q-250 67 -337 115q-182 99 -182 273q0 134 174 239q171 103 381 103q149 0 299 -58q144 -57 226 -140v-6q0 -12 -222 -226q-129 65 -168 80q-102 39 -198 39q-123 0 -123 -69 q0 -46 183 -103q251 -79 339 -129q182 -102 182 -258q0 -340 -557 -340q-148 0 -297 58q-144 56 -225 139q-3 3 -4 10z" />
<glyph unicode="t" horiz-adv-x="919" d="M45 936q0 4 4 8l148 -6q10 0 17 4.5t7 11.5l-8 310q0 6 2 8l373 -2q6 -5 6 -10l-25 -306q0 -15 23 -16l266 -12q4 -4 4 -8q0 -132 -10 -273l-236 10q-14 -3 -28 -16l6 -707q0 -5 -6 -8l-385 2q-5 3 -4 8l22 754q1 16 -24 17l-125 4q-6 5 -17 105q-10 95 -10 122z" />
<glyph unicode="u" horiz-adv-x="1350" d="M68 494q0 105 26 563q0 4 6 8l383 -21q2 -1 2 -8q-6 -380 -6 -542q0 -244 164 -244q170 0 225 127q11 8 11 12l-11 623q0 7 2 8l400 8q6 -3 6 -8l4 -1057q0 -4 -6 -8h-387q-8 5 -8 21q0 8 3 28.5t3 30.5q0 31 -27 31q-9 0 -52 -33q-53 -40 -101 -60q-78 -32 -170 -32 q-272 0 -388 203q-79 138 -79 350z" />
<glyph unicode="v" horiz-adv-x="1391" d="M41 1044q0 5 4 9l424 -6q2 -2 190 -771q4 -14 25 -14q23 0 27 12l221 766q2 5 6 7l426 2q6 -5 6 -9l-27 -82l-272 -837q-17 -55 -43 -115h-672q-5 3 -24 66l-201 663q-25 85 -63 215q-27 91 -27 94z" />
<glyph unicode="w" horiz-adv-x="1785" d="M27 1057q-1 7 2 8l379 2q7 -4 8 -8l67 -682q2 -15 25 -15q18 0 22 13q96 285 199 577h320q3 -2 192 -577q4 -13 29 -13q21 0 22 15q34 344 78 696l379 -12q7 -8 6 -12l-121 -1043q-2 -4 -8 -6l-469 -12q-1 0 -2 4l-240 457q-6 12 -24 12q-16 0 -23 -12l-235 -457 q0 -2 -2 -4l-449 12q-5 2 -6 6z" />
<glyph unicode="x" horiz-adv-x="1365" d="M33 16v9q420 507 420 512q0 4 -420 503q0 1 -0.5 2.5t0.5 4.5q0 8 2 10l444 -2l176 -219q9 -11 23 -11t22 11l187 221h440q4 -3 4 -8q0 -15 -211 -255.5t-211 -256.5q0 -17 211 -261.5t211 -259.5q0 -4 -6 -8l-412 -10q-7 2 -213 244q-8 10 -22 10t-23 -10 q-96 -117 -204 -244l-416 10q-2 2 -2 8z" />
<glyph unicode="y" horiz-adv-x="1329" d="M51 547q0 107 27 565q1 6 6 8l383 -18q2 -2 2 -10q-6 -381 -6 -543q0 -244 164 -244t229 131l2 4l-6 707q0 5 4 8l401 -2q7 -4 7 -47q0 -496 -11 -850q-2 -119 -5 -237q-6 -137 -29 -236q-41 -173 -176 -278q-157 -123 -412 -123q-46 0 -118 8q-95 11 -95 26v322 q0 8 10 8q20 0 59.5 -4t59.5 -4q315 0 315 194v168q0 17 -26 17q-11 0 -53 -32q-52 -38 -100 -58q-77 -31 -171 -31q-269 0 -384 203q-77 137 -77 348z" />
<glyph unicode="z" horiz-adv-x="1276" d="M61 268q0 15 334 251t334 251q0 16 -24 16l-627 11q-17 11 -17 266q0 4 7 8l1124 2q8 -6 8 -8v-293q0 -14 -335 -248t-335 -250t27 -16l635 4q8 -7 8 -10v-268q0 -3 -8 -9l-1114 11q-17 12 -17 282z" />
<glyph unicode="{" horiz-adv-x="1024" d="M145 389v283h19q23 -2 16 -2q110 0 157.5 53t47.5 178v258q0 109 14 156q22 80 95 117q90 45 331 45h80v-285q7 0 -22 2h-21q-86 0 -116.5 -30.5t-30.5 -127.5v-239q0 -129 -46 -186.5t-171 -80.5q124 -23 170.5 -79.5t46.5 -184.5v-241q0 -94 30.5 -125t114.5 -31 q-8 0 23 2h22v-285h-80q-242 0 -331 45q-72 37 -95 116q-14 47 -14 155v258q0 127 -46.5 179t-158.5 52q7 0 -16 -2h-19z" />
<glyph unicode="|" horiz-adv-x="1024" d="M373 -483v2048h280v-2048h-280z" />
<glyph unicode="}" horiz-adv-x="1024" d="M121 -131h22q29 -2 21 -2q86 0 116.5 30.5t30.5 127.5v241q0 128 46.5 184.5t170.5 79.5q-126 23 -171.5 79t-45.5 186v241q0 97 -30.5 127.5t-116.5 30.5h-21q-28 -2 -22 -2v285h80q241 0 329 -45q74 -38 97 -116q14 -49 14 -157v-258q0 -125 47.5 -178t157.5 -53 q-7 0 16 2h19v-283h-19q-23 2 -16 2q-112 0 -158.5 -52t-46.5 -179v-258q0 -109 -14 -157q-23 -78 -97 -116q-84 -43 -315 -43h-94v283z" />
<glyph unicode="~" d="M178 379v299q117 73 217 108t191 35q113 0 278 -53q2 0 64 -23q149 -53 235 -53q167 0 367 150v-299q-197 -133 -371 -133q-51 0 -112 12q-54 11 -154 45q-203 70 -332 70q-162 0 -383 -158z" />
<glyph unicode="&#xa1;" horiz-adv-x="675" d="M100 1319q0 59 84 96q76 33 174 33q101 0 177 -35q85 -38 85 -100q0 -57 -86 -95q-77 -34 -170 -34q-97 0 -177 36q-87 40 -87 99zM145 -53q0 213 7 545q10 467 11 544q0 7 4 11l414 -5q8 -5 8 -8l-26 -1085q-1 -6 -7 -10h-405q-6 4 -6 8z" />
<glyph unicode="&#xa2;" horiz-adv-x="1104" d="M68 674q0 405 376 540q66 24 195 46q20 3 20 16q0 177 7 180l90 -4q6 -3 6 -168q0 -13 26 -16q60 -5 119 -10q93 -10 92 -27q2 -159 -8 -326h-4q-29 0 -89.5 6.5t-90.5 6.5q-51 0 -51 -17l-4 -457q-1 -16 61 -16q35 0 104.5 8t104.5 8q6 -4 6 -10l-14 -252 q-2 -24 -240 -24q-25 0 -24 -15q2 10 2 -92q0 -16 -13 -18t-80 -6q-6 3 -6 129q0 12 -20 16q-128 25 -193 47q-372 130 -372 455zM418 655q0 -155 203 -209h10q24 0 24 17v414q0 16 -24 16h-15q-198 -59 -198 -238z" />
<glyph unicode="&#xa3;" horiz-adv-x="1449" d="M61 686q0 4 7 8l125 -2q26 0 26 17l8 241q18 510 586 510q563 0 563 -493v-95v-34q-1 -8 -6 -11l-379 33q-8 8 -8 29q0 14 2 43t2 43q0 190 -180 190q-129 0 -170 -112q-17 -48 -21 -176q0 -22 -3 -87q-3 -53 -3 -85q0 -17 23 -17l315 -4q6 -4 6 -8q1 -103 -6 -211 l-321 4q-28 0 -29 -16l-6 -197q-1 -15 22 -16l752 -54q4 -2 4 -8q-2 -90 -10 -184l-1163 31q-5 4 -4 10l16 424q1 16 -60 19q-41 -1 -81 -1q-3 3 -7 209z" />
<glyph unicode="&#xa4;" horiz-adv-x="1681" d="M78 537q0 6 2 8h174q26 0 27 16q2 54 2 80q0 18 -25 18h-172q-5 4 -8 117q0 5 6 10l199 -4q21 0 26 15q43 115 84 176q126 187 385 285q245 94 570 94h18q13 0 14 -9l68 -362q1 -4 -4 -8l-4 -2q-148 6 -150 6q-319 0 -489 -170q-9 -9 -4 -18t22 -9l326 -2q6 -4 6 -8 q0 -5 -21.5 -62t-23.5 -59l-361 4q-18 1 -24 -16.5t-6 -79.5q0 -16 24 -16h334q4 -3 4 -13q0 -7 -22.5 -61.5t-26.5 -56.5l-231 2q-15 0 -23 -9q-7 -8 0 -16q121 -129 354 -129q196 0 422 117q2 -2 39 -157t37 -165q0 -3 -2 -8q-75 -71 -230 -111q-136 -34 -288 -34 q-254 0 -450 94q-187 90 -283 246q-31 50 -70 163q-5 15 -22 15l-195 2q-5 3 -8 117z" />
<glyph unicode="&#xa5;" horiz-adv-x="1577" d="M78 1315q0 8 2 10l467 -6q4 -1 6 -4l209 -559q4 -13 26 -13q20 0 25 13l231 557q3 5 7 6h467q3 -3 4 -8q0 -15 -287 -502q-49 -84 -49 -82q0 -16 26 -16h103q6 -4 6 -9q-1 -86 -12 -180l-226 2q-17 0 -24 -12q-49 -88 -49 -92q0 -16 26 -17l279 -2q6 -3 6 -8 q-1 -87 -12 -182l-271 4q-12 -4 -24 -16l2 -166q0 -6 -2 -8l-465 -9q-3 3 -6 189q-1 16 -25 16l-313 2q-5 4 -8 178q0 5 6 9l315 -2q25 -1 25 16l-51 96q-7 12 -23 12l-264 3q-5 3 -8 176q0 4 6 8l151 -2q25 -1 25 16q0 1 -39 74q-262 493 -262 508z" />
<glyph unicode="&#xa6;" horiz-adv-x="1024" d="M373 -350v758h280v-758h-280zM373 674v758h280v-758h-280z" />
<glyph unicode="&#xa7;" horiz-adv-x="1024" d="M12 655q0 179 176 279q-104 90 -104 237q0 162 108.5 252t301.5 90q440 0 446 -368h-313q0 65 -33.5 101t-91.5 36q-47 0 -76 -22.5t-29 -59.5t39 -70q34 -28 121 -65l160 -68q148 -62 221.5 -151.5t73.5 -210.5q0 -203 -174 -273q61 -52 89.5 -113.5t28.5 -135.5 q0 -171 -133 -260q-115 -76 -295 -76q-446 0 -450 391h305v-8q0 -64 38 -106t101 -42q45 0 78 23q37 27 37 69t-150 117l-8 4l-153 60q-314 121 -314 370zM295 686q0 -55 174 -125q101 -40 166 -69q90 32 90 102q0 61 -168 135q-103 45 -166 78q-96 -54 -96 -121z" />
<glyph unicode="&#xa8;" horiz-adv-x="1608" d="M360 1155q0 52 58 90.5t139 38.5q82 0 138.5 -38t56.5 -91q0 -52 -57 -90.5t-138 -38.5q-82 0 -139.5 38t-57.5 91zM852 1155q0 52 58.5 90.5t140.5 38.5t139 -38.5t57 -90.5t-57.5 -90.5t-138.5 -38.5q-82 0 -140.5 38.5t-58.5 90.5z" />
<glyph unicode="&#xa9;" d="M102 741q0 311 224 537q212 215 526 215q318 0 537 -219q105 -106 161 -242.5t56 -290.5q0 -315 -217 -526q-232 -225 -537 -225q-304 0 -528 223q-222 220 -222 528zM256 743q0 -245 176 -421.5t422 -176.5q122 0 229 45t197 134q172 169 172 419q0 248 -175 423 t-423 175q-251 0 -420 -172q-88 -90 -133 -197t-45 -229zM440 737q0 192 103 315q109 132 297 132q161 0 263 -69q117 -79 126 -232h-242q-3 61 -39 98t-92 37q-156 0 -156 -273q0 -262 164 -262q121 0 127 144h248q-6 -158 -117 -245q-102 -81 -264 -81q-195 0 -306.5 116 t-111.5 320z" />
<glyph unicode="&#xaa;" horiz-adv-x="861" d="M84 895q0 102 128 156q110 47 277 47q18 0 52 -2t51 -2q22 0 22 39q0 120 -129 120q-59 0 -87 -22q-24 -24 -48 -47l-196 -25l-7 10l5 5q85 192 317 192q326 0 326 -233q0 -60 -15 -259q-16 -211 -24 -217l-168 -2q-7 5 -6 9l6 59q0 16 -25 16q-2 0 -10 -2 q-116 -30 -193 -30q-276 0 -276 188zM338 889q0 -84 145 -84q109 0 111 22l10 140q2 18 -96 18q-170 0 -170 -96z" />
<glyph unicode="&#xab;" horiz-adv-x="1373" d="M96 649q0 4 580 441q17 -15 55 -69q41 -58 41 -71q-410 -415 -410 -418q0 -14 197 -177t197 -181q0 -7 -31.5 -72t-36.5 -69h-4q-282 181 -567 375q0 39 -10.5 119.5t-10.5 121.5zM598 649q0 4 580 441q11 -10 53.5 -66.5t44.5 -65.5q0 -9 -206 -211t-206 -215 q0 -14 196.5 -177t196.5 -181q0 -9 -55 -123q-9 -18 -12 -18q-283 180 -569 375q-1 -3 -11 84q-12 108 -12 157z" />
<glyph unicode="&#xac;" d="M254 602v266h1198v-501h-272v235h-926z" />
<glyph unicode="&#xad;" horiz-adv-x="819" d="M72 377v155q2 132 12 140h657q7 -5 7 -10v-287q-1 -6 -5 -8h-665q-7 5 -6 10z" />
<glyph unicode="&#xae;" d="M102 741q0 311 224 537q212 215 526 215q318 0 537 -219q105 -106 161 -242.5t56 -290.5q0 -315 -217 -526q-232 -225 -537 -225q-304 0 -528 223q-222 220 -222 528zM256 743q0 -245 176 -421.5t422 -176.5q122 0 229 45t197 134q172 169 172 419q0 248 -175 423 t-423 175q-251 0 -420 -172q-88 -90 -133 -197t-45 -229zM528 352v813h334q174 0 265.5 -60.5t91.5 -178.5q0 -163 -164 -219l178 -355h-279l-145 312h-25v-312h-256zM784 813h54q118 0 118 98q0 95 -133 95h-39v-193z" />
<glyph unicode="&#xb0;" horiz-adv-x="674" d="M14 1149q0 136 94.5 230t229.5 94t228 -94.5t93 -229.5t-94 -228.5t-229 -93.5t-227 93q-95 93 -95 229zM186 1151q0 -65 43.5 -109.5t108.5 -44.5q63 0 107 45.5t44 108.5t-45 107.5t-108 44.5q-64 0 -107 -43.5t-43 -108.5z" />
<glyph unicode="&#xb1;" d="M254 -41v272h1198v-272h-1198zM254 680v272h459v310h280v-310h459v-272h-459v-309h-280v309h-459z" />
<glyph unicode="&#xb2;" horiz-adv-x="801" d="M86 618v101q0 130 115 209q59 40 214 94q115 40 115 74q0 59 -96 59q-56 0 -118 -27q-51 -25 -101 -51q-10 6 -67.5 69t-57.5 68q1 5 4 9q46 51 132 88q91 39 180 39q331 0 331 -228q0 -107 -111 -174q-37 -23 -206 -87q-111 -42 -111 -87q0 -16 25 -16h354q6 -4 6 -8 v-132q0 -4 -6 -8h-594q-8 6 -8 8z" />
<glyph unicode="&#xb3;" horiz-adv-x="796" d="M57 754q3 7 61 63t64 57q53 -22 105 -45q63 -24 119 -24q92 0 92 55q0 84 -181 84h-22q-2 2 -2 8v121q0 3 2 8h22q181 0 181 86q0 52 -90 52q-61 0 -122 -23q-53 -24 -106 -47q-123 115 -123 127q1 5 4 8q47 46 136 77.5t176 31.5q126 0 229 -62t103 -141q0 -55 -34 -98 q-22 -28 -62 -56q-34 -22 -34 -26q0 3 65 -51.5t65 -120.5q0 -203 -334 -203q-83 0 -174 32t-134 76q-4 5 -6 11z" />
<glyph unicode="&#xb4;" horiz-adv-x="1608" d="M555 1092q0 1 315 352h2q181 -126 181 -131q0 -7 -2 -8l-381 -314l-109 88q-6 5 -6 13z" />
<glyph unicode="&#xb6;" horiz-adv-x="1024" d="M10 1130q0 165 115 260q107 89 274 89h615v-142h-101v-1337h-202v1337h-140v-1337h-202v784q-158 8 -255 98q-104 94 -104 248z" />
<glyph unicode="&#xb8;" horiz-adv-x="1608" d="M330 -307q-1 4 2 12q256 -127 428 -127q196 0 196 156q0 169 -372 180q-6 4 -6 8q0 5 94 141.5t104 145.5h174q1 -1 2 -1q2 -3 2 -9q0 -17 -45 -102t-45 -99t23 -16q391 -40 391 -297q0 -123 -102 -205q-111 -90 -297 -90q-190 0 -345 95q-132 82 -204 208z" />
<glyph unicode="&#xb9;" horiz-adv-x="374" d="M94 621l2 360q4 318 13 326l194 -4q2 -2 2 -9l-18 -669q0 -6 -6 -11l-181 -4q-6 6 -6 11z" />
<glyph unicode="&#xba;" horiz-adv-x="878" d="M80 981q0 145 62 243q87 138 280 138q205 0 308 -121q81 -97 81 -240q0 -132 -66 -227q-88 -127 -270 -127q-205 0 -309 106q-86 88 -86 228zM293 967q0 -129 141 -129q79 0 118 57q30 43 30 100q0 51 -32 86q-39 43 -112 43q-75 0 -114 -58q-31 -45 -31 -99z" />
<glyph unicode="&#xbb;" horiz-adv-x="1373" d="M96 958q2 9 45.5 65.5t55.5 66.5q577 -436 577 -441q0 -49 -12 -157q-10 -87 -10 -84q-4 -13 -570 -375q-3 0 -12 18q-53 110 -53 123q0 18 195.5 181t195.5 177q0 13 -206 215t-206 211zM602 950q0 13 41 71q39 54 55 69q578 -436 578 -441q0 -41 -9.5 -122t-9.5 -119 q-2 -8 -569 -375h-4q-5 4 -36.5 69t-31.5 72q0 18 197 181t197 177q0 5 -408 418z" />
<glyph unicode="&#xbc;" horiz-adv-x="1541" d="M23 14q0 398 374 804q217 235 738 620l227 -4q8 -6 8 -9q-1 -4 -4 -8q-1107 -1398 -1116 -1403l-221 -8q-6 4 -6 8zM160 672q1 180 2 361q3 318 12 325l193 -4q6 -4 6 -8l-21 -672q0 -4 -6 -8l-180 -4q-6 5 -6 10zM717 178q0 6 297 514l6 4l328 4q6 -4 6 -10l-4 -377 q-1 -14 59 -14q7 0 16 -2q2 -3 2 -8v-111q0 -10 -51 -10q-26 0 -26 -14q1 -66 -9 -144l-184 -4q-5 4 -6 38q0 23 2 64.5t2 43.5q0 16 -27 16h-407q-4 3 -4 10zM977 313q0 -16 22 -16h129q27 0 27 16l-4 205q0 14 -25 14q-20 0 -26 -10l-33 -53l-90 -150v-6z" />
<glyph unicode="&#xbd;" horiz-adv-x="1678" d="M10 14q0 398 375 804q217 235 737 620l228 -4q8 -6 8 -9q-1 -4 -4 -8q-1107 -1398 -1116 -1403l-222 -8q-6 4 -6 8zM147 672q1 180 3 361q3 318 12 325l192 -4q7 -4 6 -8l-20 -672q0 -4 -6 -8l-180 -4q-7 5 -7 10zM907 16v99q0 129 115 209q59 40 213 94q115 39 115 74 q0 61 -93 61q-55 0 -119 -27q-51 -26 -102 -51q-10 6 -68.5 69t-58.5 68q0 4 4 9q46 51 132 87q91 37 180 37q331 0 331 -229q0 -107 -110 -173q-37 -22 -207 -85q-111 -41 -111 -86q0 -16 27 -16h352q6 -4 6 -11v-129q0 -4 -6 -8h-594q-6 5 -6 8z" />
<glyph unicode="&#xbe;" horiz-adv-x="1772" d="M57 754q3 7 61 63t64 57q53 -22 105 -45q63 -24 119 -24q92 0 92 55q0 84 -181 84h-22q-2 2 -2 8v121q0 3 2 8h22q181 0 181 86q0 52 -90 52q-61 0 -122 -23q-53 -24 -106 -47q-123 115 -123 127q1 5 4 8q47 46 136 77.5t176 31.5q126 0 229 -62t103 -141q0 -55 -34 -98 q-22 -28 -62 -56q-34 -22 -34 -26q0 3 65 -51.5t65 -120.5q0 -203 -334 -203q-83 0 -174 32t-134 76q-4 5 -6 11zM289 14q0 397 375 803q213 230 739 621l223 -4q8 -6 8 -9t-1110 -1409q-2 0 -6 -2l-225 -8q-4 4 -4 8zM983 178v6q148 255 303 512l328 4q6 -3 6 -10l-2 -377 q0 -14 57 -14q7 0 17 -2q2 -3 2 -8v-111q0 -10 -52 -10q-24 0 -24 -14v-76q-1 -61 -10 -68l-183 -4q-8 4 -8 8v138q0 16 -24 16h-406q-4 3 -4 10zM1245 313q0 -16 25 -16h125q22 0 22 16v205q0 14 -24 14q-16 0 -23 -10l-35 -55l-88 -148q-2 -3 -2 -6z" />
<glyph unicode="&#xbf;" horiz-adv-x="1512" d="M41 408q0 114 101 233q58 68 219 201q180 149 231 270q0 3 2 8h490q1 -1 2.5 -3t1.5 -7q0 -133 -147 -270q-36 -33 -274 -207q-147 -108 -147 -172q0 -96 158 -96q96 0 206 44q72 29 158 81q71 45 76 45l291 -306q0 -1 0.5 -7.5t-0.5 -6.5q-107 -119 -282 -198 q-192 -87 -392 -87q-694 0 -694 478zM572 1397q0 58 87 97q78 34 175 34q101 0 177 -36q83 -39 83 -101q0 -57 -87 -94q-77 -33 -171 -33q-98 0 -177 35q-87 39 -87 98z" />
<glyph unicode="&#xc0;" horiz-adv-x="1548" d="M12 -20q190 710 393 1429h734q4 -3 6 -8l387 -1480q-2 7 -4 13q0 -3 -6 -8l-471 6q-2 2 -60 285q-3 14 -26 14h-390q-23 0 -26 -14q-23 -120 -60 -248l-473 -2q-6 5 -4 13zM459 1825q0 5 180 131h2q315 -351 315 -352q0 -8 -6 -13l-108 -88h-5l-376 314q-2 1 -2 8z M633 549q0 -17 22 -17h238q22 0 22 17v2l-108 512q-3 14 -23 14q-21 0 -24 -14z" />
<glyph unicode="&#xc1;" horiz-adv-x="1548" d="M12 -20q190 710 393 1429h734q4 -3 6 -8l387 -1480q-2 7 -4 13q0 -3 -6 -8l-471 6q-2 2 -60 285q-3 14 -26 14h-390q-23 0 -26 -14q-23 -120 -60 -248l-473 -2q-6 5 -4 13zM633 549q0 -17 22 -17h238q22 0 22 17v2l-108 512q-3 14 -23 14q-21 0 -24 -14zM684 1604 q0 1 315 352h2q180 -126 180 -131q0 -7 -2 -8l-381 -314l-108 88q-6 5 -6 13z" />
<glyph unicode="&#xc2;" horiz-adv-x="1548" d="M12 -20q190 710 393 1429h734q4 -3 6 -8l387 -1480q-2 7 -4 13q0 -3 -6 -8l-471 6q-2 2 -60 285q-3 14 -26 14h-390q-23 0 -26 -14q-23 -120 -60 -248l-473 -2q-6 5 -4 13zM293 1626q0 6 351 316h4q96 7 225 14q18 -11 197.5 -169t179.5 -163q0 -6 -88 -113v-2 q-384 224 -391 224q-14 0 -381 -211q-97 93 -97 104zM633 549q0 -17 22 -17h238q22 0 22 17v2l-108 512q-3 14 -23 14q-21 0 -24 -14z" />
<glyph unicode="&#xc3;" horiz-adv-x="1548" d="M12 -20q190 710 393 1429h734q4 -3 6 -8l387 -1480q-2 7 -4 13q0 -3 -6 -8l-471 6q-2 2 -60 285q-3 14 -26 14h-390q-23 0 -26 -14q-23 -120 -60 -248l-473 -2q-6 5 -4 13zM388 1573l10 227q1 15 72 25q55 8 92 8q80 0 234 -40t241 -40q20 0 57 7t56 7q6 -4 6 -8v-239 q0 -31 -154 -31q-85 0 -252 43t-260 43q-17 0 -48.5 -5t-47.5 -5q-7 3 -6 8zM633 549q0 -17 22 -17h238q22 0 22 17v2l-108 512q-3 14 -23 14q-21 0 -24 -14z" />
<glyph unicode="&#xc4;" horiz-adv-x="1548" d="M12 -20q190 710 393 1429h734q4 -3 6 -8l387 -1480q-2 7 -4 13q0 -3 -6 -8l-471 6q-2 2 -60 285q-3 14 -26 14h-390q-23 0 -26 -14q-23 -120 -60 -248l-473 -2q-6 5 -4 13zM328 1688q0 52 57.5 90.5t139.5 38.5t138 -38.5t56 -90.5q0 -53 -56.5 -91t-137.5 -38 q-82 0 -139.5 38t-57.5 91zM633 549q0 -17 22 -17h238q22 0 22 17v2l-108 512q-3 14 -23 14q-21 0 -24 -14zM820 1688q0 51 58.5 90t139.5 39q83 0 140 -38.5t57 -90.5t-57.5 -90.5t-139.5 -38.5t-140 38t-58 91z" />
<glyph unicode="&#xc5;" horiz-adv-x="1548" d="M12 0q190 710 394 1430h198q-129 62 -129 172q0 81 80 144q86 66 211 66q124 0 206 -67q77 -62 77 -143q0 -110 -125 -172h215l6 -9q94 -364 189 -728q194 -737 194 -738q0 -6 -6 -10l-471 8q-2 1 -60 285q-3 14 -26 14h-390q-23 0 -26 -14q-23 -121 -60 -248l-473 -2 q-6 4 -4 12zM633 569q0 -16 22 -16h238q22 0 22 16v2l-108 512q-3 15 -23 15q-21 0 -24 -15zM672 1602q0 -24 28 -40t66 -16q90 0 90 56q0 55 -90 55q-37 0 -65.5 -16t-28.5 -39z" />
<glyph unicode="&#xc6;" horiz-adv-x="2332" d="M55 12q0 12 127 269q168 332 500 999l63 129l7 4h1511q6 -5 6 -12v-285q0 -4 -6 -8h-672q-24 0 -24 -16l-4 -238q-1 -16 26 -16h537q6 -4 6 -9v-286q0 -6 -6 -11h-541q-26 0 -26 -16l-3 -219q0 -16 25 -16h682q6 -5 6 -9v-288q0 -4 -6 -9l-1182 -2q-4 3 -4 9l4 264 q1 16 -26 16h-389q-23 0 -27 -10l-104 -242q-3 -2 -9 -2l-469 -4q-2 2 -2 8zM795 573q0 -16 24 -16h240q22 0 22 16l2 508q0 17 -24 17q-21 0 -27 -13q-237 -508 -237 -512z" />
<glyph unicode="&#xc7;" horiz-adv-x="1551" d="M49 659q0 377 275 595q297 235 862 235h22q20 0 21 -6l67 -396q1 -1 -4 -8h-2q-26 0 -80.5 2t-81.5 2q-292 0 -458 -122q-156 -116 -156 -306q0 -146 102 -234q115 -99 336 -99q232 0 453 124q2 -2 41 -169.5t39 -178.5q1 -7 0 -8q-86 -78 -245 -121q-145 -39 -308 -39 h-19q-61 -119 -61 -120q0 -15 22 -17q394 -40 394 -297q0 -122 -102 -205q-111 -90 -298 -90q-190 0 -344 96q-132 81 -205 207q0 4 3 13q256 -127 428 -127q196 0 196 155q0 169 -373 181q-5 3 -6 8q0 2 150 213q-335 53 -513 269q-155 188 -155 443z" />
<glyph unicode="&#xc8;" horiz-adv-x="1317" d="M74 1419q0 6 4 8h1169q6 -4 6 -8v-286q0 -4 -6 -9h-678q-26 0 -26 -14v-242q0 -14 26 -14h537q6 -4 6 -10v-285q0 -3 -6 -8h-541q-24 0 -24 -16l-4 -224q-1 -16 26 -16h684q6 -4 6 -8v-285q0 -4 -6 -8h-1163q-10 7 -10 1425zM362 1825q0 5 180 131h2q316 -351 316 -352 q0 -8 -6 -13l-109 -88h-4l-377 314q-2 1 -2 8z" />
<glyph unicode="&#xc9;" horiz-adv-x="1317" d="M74 1419q0 6 4 8h1169q6 -4 6 -8v-286q0 -4 -6 -9h-678q-26 0 -26 -14v-242q0 -14 26 -14h537q6 -4 6 -10v-285q0 -3 -6 -8h-541q-24 0 -24 -16l-4 -224q-1 -16 26 -16h684q6 -4 6 -8v-285q0 -4 -6 -8h-1163q-10 7 -10 1425zM555 1604q0 1 315 352h2q181 -126 181 -131 q0 -7 -2 -8l-381 -314l-109 88q-6 5 -6 13z" />
<glyph unicode="&#xca;" horiz-adv-x="1317" d="M74 1419q0 6 4 8h1169q6 -4 6 -8v-286q0 -4 -6 -9h-678q-26 0 -26 -14v-242q0 -14 26 -14h537q6 -4 6 -10v-285q0 -3 -6 -8h-541q-24 0 -24 -16l-4 -224q-1 -16 26 -16h684q6 -4 6 -8v-285q0 -4 -6 -8h-1163q-10 7 -10 1425zM197 1626q0 6 350 316h4q97 7 226 14 q18 -11 197 -169t179 -163q0 -6 -88 -113v-2q-383 224 -391 224q-13 0 -381 -211q-96 93 -96 104z" />
<glyph unicode="&#xcb;" horiz-adv-x="1317" d="M74 1419q0 6 4 8h1169q6 -4 6 -8v-286q0 -4 -6 -9h-678q-26 0 -26 -14v-242q0 -14 26 -14h537q6 -4 6 -10v-285q0 -3 -6 -8h-541q-24 0 -24 -16l-4 -224q-1 -16 26 -16h684q6 -4 6 -8v-285q0 -4 -6 -8h-1163q-10 7 -10 1425zM232 1688q0 52 57.5 90.5t138.5 38.5 q82 0 138.5 -38.5t56.5 -90.5q0 -53 -56.5 -91t-138.5 -38q-81 0 -138.5 38t-57.5 91zM723 1688q0 51 58.5 90t140.5 39t139.5 -38.5t57.5 -90.5t-58 -90.5t-139 -38.5q-82 0 -140.5 38t-58.5 91z" />
<glyph unicode="&#xcc;" horiz-adv-x="649" d="M-24 1825q0 5 180 131h3q315 -351 315 -352q0 -8 -6 -13l-109 -88h-4l-377 314q-2 1 -2 8zM80 -29l22 1413q1 8 4 11l463 -6q3 -2 2 -11l-36 -1401q-1 -2 -9 -8l-442 -8q-4 3 -4 10z" />
<glyph unicode="&#xcd;" horiz-adv-x="649" d="M80 -29l22 1413q1 8 4 11l463 -6q3 -2 2 -11l-36 -1401q-1 -2 -9 -8l-442 -8q-4 3 -4 10zM233 1604q0 1 316 352h2q180 -126 180 -131q0 -7 -2 -8l-381 -314l-108 88q-7 5 -7 13z" />
<glyph unicode="&#xce;" horiz-adv-x="649" d="M-157 1585q0 6 351 316h4q96 7 225 14q18 -11 197.5 -169t179.5 -163q0 -6 -88 -113v-2q-384 224 -392 224q-13 0 -380 -211q-97 93 -97 104zM80 -29l22 1413q1 8 4 11l463 -6q3 -2 2 -11l-36 -1401q-1 -2 -9 -8l-442 -8q-4 3 -4 10z" />
<glyph unicode="&#xcf;" horiz-adv-x="649" d="M-90 1667q0 52 57.5 90.5t139.5 38.5t138 -38t56 -91q0 -52 -56.5 -90.5t-137.5 -38.5q-82 0 -139.5 38t-57.5 91zM80 -29l22 1413q1 8 4 11l463 -6q3 -2 2 -11l-36 -1401q-1 -2 -9 -8l-442 -8q-4 3 -4 10zM402 1667q0 52 58.5 90.5t139.5 38.5q83 0 140 -38.5t57 -90.5 t-57.5 -90.5t-139.5 -38.5t-140 38.5t-58 90.5z" />
<glyph unicode="&#xd0;" horiz-adv-x="1473" d="M-102 539q2 143 16 295h125q24 0 24 16q0 591 5 594q626 0 977 -183q382 -200 382 -593t-380 -594q-351 -185 -975 -185q-5 4 -9 623q0 16 -24 16h-135q-7 5 -6 11zM569 315q0 -16 25 -16q171 0 268 137q76 107 76 232t-76 232q-97 136 -268 136q-25 0 -25 -16v-170 q0 -16 103 -16q6 -5 6 -13v-284q0 -7 -2 -9q-107 0 -107 -16v-197z" />
<glyph unicode="&#xd1;" horiz-adv-x="1522" d="M72 1374q0 7 6 12l442 -2v-4l455 -821q7 -12 24 -12q27 0 27 16l-4 811q0 7 6 12l426 -2q2 -1 2 -10q-3 -701 -12 -1409l-430 -14q-1 1 -457 829q-7 13 -22 13q-27 0 -27 -17l-10 -803q-2 -6 -6 -8l-412 -14q-6 3 -6 10zM388 1573l10 227q1 15 72 25q55 8 92 8 q80 0 234 -40t241 -40q20 0 57 7t56 7q6 -4 6 -8v-239q0 -31 -154 -31q-85 0 -252 43t-260 43q-17 0 -48.5 -5t-47.5 -5q-7 3 -6 8z" />
<glyph unicode="&#xd2;" horiz-adv-x="1669" d="M39 637q0 292 190 513q233 269 656 269q272 0 467 -171q152 -133 223 -330q49 -137 49 -289q0 -258 -173 -472q-213 -263 -581 -263q-434 0 -653 245q-178 199 -178 498zM489 618q0 -122 81 -230q100 -134 272 -134q171 0 270 134q80 108 80 230q0 123 -80 231 q-99 134 -270 134q-172 0 -272 -134q-81 -108 -81 -231zM523 1825q0 5 180 131h2q316 -351 316 -352q0 -8 -7 -13l-108 -88h-4l-377 314q-2 1 -2 8z" />
<glyph unicode="&#xd3;" horiz-adv-x="1669" d="M39 637q0 292 190 513q233 269 656 269q272 0 467 -171q152 -133 223 -330q49 -137 49 -289q0 -258 -173 -472q-213 -263 -581 -263q-434 0 -653 245q-178 199 -178 498zM489 618q0 -122 81 -230q100 -134 272 -134q171 0 270 134q80 108 80 230q0 123 -80 231 q-99 134 -270 134q-172 0 -272 -134q-81 -108 -81 -231zM684 1604q0 1 315 352h2q180 -126 180 -131q0 -7 -2 -8l-381 -314l-108 88q-6 5 -6 13z" />
<glyph unicode="&#xd4;" horiz-adv-x="1669" d="M39 637q0 292 190 513q233 269 656 269q272 0 467 -171q152 -133 223 -330q49 -137 49 -289q0 -258 -173 -472q-213 -263 -581 -263q-434 0 -653 245q-178 199 -178 498zM390 1585q0 6 350 316h4q97 7 226 14q18 -11 197 -169t179 -163q0 -6 -88 -113v-2 q-384 224 -391 224q-13 0 -381 -211q-96 93 -96 104zM489 618q0 -122 81 -230q100 -134 272 -134q171 0 270 134q80 108 80 230q0 123 -80 231q-99 134 -270 134q-172 0 -272 -134q-81 -108 -81 -231z" />
<glyph unicode="&#xd5;" horiz-adv-x="1669" d="M39 637q0 292 190 513q233 269 656 269q272 0 467 -171q152 -133 223 -330q49 -137 49 -289q0 -258 -173 -472q-213 -263 -581 -263q-434 0 -653 245q-178 199 -178 498zM452 1573l10 227q1 15 73 25q55 8 91 8q80 0 234.5 -40t240.5 -40q21 0 57.5 7t55.5 7q6 -4 6 -8 v-239q0 -31 -154 -31q-84 0 -251.5 43t-260.5 43q-17 0 -48.5 -5t-47.5 -5q-6 3 -6 8zM489 618q0 -122 81 -230q100 -134 272 -134q171 0 270 134q80 108 80 230q0 123 -80 231q-99 134 -270 134q-172 0 -272 -134q-81 -108 -81 -231z" />
<glyph unicode="&#xd6;" horiz-adv-x="1669" d="M39 637q0 292 190 513q233 269 656 269q272 0 467 -171q152 -133 223 -330q49 -137 49 -289q0 -258 -173 -472q-213 -263 -581 -263q-434 0 -653 245q-178 199 -178 498zM393 1667q0 52 57.5 90.5t138.5 38.5q82 0 138.5 -38t56.5 -91q0 -52 -57 -90.5t-138 -38.5 q-82 0 -139 38t-57 91zM489 618q0 -122 81 -230q100 -134 272 -134q171 0 270 134q80 108 80 230q0 123 -80 231q-99 134 -270 134q-172 0 -272 -134q-81 -108 -81 -231zM884 1667q0 52 58.5 90.5t140.5 38.5t139 -38.5t57 -90.5t-57.5 -90.5t-138.5 -38.5 q-82 0 -140.5 38.5t-58.5 90.5z" />
<glyph unicode="&#xd7;" d="M254 184l426 426l-426 426l195 195l425 -426l426 426l195 -195l-426 -426l426 -426l-195 -194l-426 426l-425 -426z" />
<glyph unicode="&#xd8;" horiz-adv-x="1669" d="M39 633q0 292 191 513q233 269 655 269q19 0 56 -4t52 -4q28 0 33 12q23 56 51 117l332 -4q6 -4 6 -8q0 1 -45 -101q-61 -138 -61 -139q0 -5 6 -10q309 -256 309 -649q0 -258 -173 -472q-213 -264 -581 -264q-52 0 -108.5 4.5t-46.5 4.5q-31 0 -40 -32q-11 -39 -20 -44 l-323 -8q-6 3 -6 8q0 15 33.5 83t33.5 83q0 7 -8 12q-346 210 -346 633zM489 614q0 -43 18 -109q24 -87 58 -87q17 0 23 12q231 529 231 531q0 16 -22 16h-6q-148 -18 -233 -147q-69 -104 -69 -216zM858 268q0 -14 23 -14h10q146 17 232 146q69 104 69 214q0 43 -18 109 q-24 86 -58 86q-17 0 -22 -12z" />
<glyph unicode="&#xd9;" horiz-adv-x="1524" d="M63 496q0 76 15 825q0 5 6 8l473 -22l6 -9q-1 -2 -6 -168q-16 -528 -16 -536v-68q0 -262 204 -262q138 0 187 109q27 60 28 180l11 752q0 5 4 8l475 10q4 -3 4 -8l-22 -801q-18 -606 -695 -606q-674 0 -674 588zM394 1743q0 6 180 131h3q315 -351 315 -352q0 -8 -6 -13 l-109 -88h-4l-377 314q-2 1 -2 8z" />
<glyph unicode="&#xda;" horiz-adv-x="1524" d="M63 496q0 76 15 825q0 5 6 8l473 -22l6 -9q-1 -2 -6 -168q-16 -528 -16 -536v-68q0 -262 204 -262q138 0 187 109q27 60 28 180l11 752q0 5 4 8l475 10q4 -3 4 -8l-22 -801q-18 -606 -695 -606q-674 0 -674 588zM619 1583q0 1 316 352h2q180 -125 180 -131t-2 -8 l-381 -313l-109 88q-6 5 -6 12z" />
<glyph unicode="&#xdb;" horiz-adv-x="1524" d="M63 496q0 76 15 825q0 5 6 8l473 -22l6 -9q-1 -2 -6 -168q-16 -528 -16 -536v-68q0 -262 204 -262q138 0 187 109q27 60 28 180l11 752q0 5 4 8l475 10q4 -3 4 -8l-22 -801q-18 -606 -695 -606q-674 0 -674 588zM261 1524q0 6 351 315h4q96 7 225 14q18 -11 197.5 -169 t179.5 -162q0 -6 -88 -113v-2q-384 223 -392 223q-13 0 -380 -211q-97 94 -97 105z" />
<glyph unicode="&#xdc;" horiz-adv-x="1524" d="M63 496q0 76 15 825q0 5 6 8l473 -22l6 -9q-1 -2 -6 -168q-16 -528 -16 -536v-68q0 -262 204 -262q138 0 187 109q27 60 28 180l11 752q0 5 4 8l475 10q4 -3 4 -8l-22 -801q-18 -606 -695 -606q-674 0 -674 588zM328 1606q0 52 57.5 90.5t139.5 38.5t138 -38.5t56 -90.5 q0 -53 -56.5 -91t-137.5 -38q-82 0 -139.5 38t-57.5 91zM820 1606q0 51 58.5 90t139.5 39q83 0 140 -38.5t57 -90.5t-57.5 -90.5t-139.5 -38.5t-140 38t-58 91z" />
<glyph unicode="&#xdd;" horiz-adv-x="1587" d="M35 1329q1 4 6 8l496 -6q4 -1 6 -4l217 -592q4 -12 24 -12q22 0 27 12q122 296 250 596h498q3 -3 4 -8q0 -16 -480 -842q-57 -99 -57 -102l6 -414q0 -4 -6 -8l-491 -8q-5 3 -5 430q0 -1 -55 104q-440 837 -440 846zM716 1501q0 1 315 352h2q180 -125 180 -131t-2 -8 l-381 -313l-108 88q-6 5 -6 12z" />
<glyph unicode="&#xde;" horiz-adv-x="1445" d="M74 1489q0 3 6 8l518 -14q6 -5 6 -156q0 -13 21 -16q40 -5 118 -15q295 -38 437 -129q202 -129 202 -438q0 -193 -139 -336q-150 -153 -426 -211q-58 -12 -219 -24q-26 -2 -27 -17q0 -74 -8 -153l-477 -29q-6 4 -6 10zM580 479q-1 -16 28 -16t103 14q254 50 254 215 q0 112 -89 177q-94 69 -266 69q-24 0 -24 -16z" />
<glyph unicode="&#xdf;" horiz-adv-x="1498" d="M72 -287l6 1282q0 134 116 259q113 124 295 194q144 55 273 55q290 0 482 -129q188 -127 188 -313q0 -175 -232 -311q-10 -6 -10 -13q0 -6 10 -12q234 -137 234 -313q0 -200 -196 -318q-191 -114 -505 -114h-4q-1 1 0 10l4 176q0 24 -1 49q1 36 11 37q21 1 68 10 q88 17 138 70q44 48 44 110q0 119 -176 162l-48 8q-40 7 -40 15l8 221q1 6 80 22q176 37 176 160q0 72 -48 124q-57 63 -163 63q-103 0 -171 -76q-58 -65 -58 -135v-1293q0 -6 -6 -10l-473 2q-2 2 -2 8z" />
<glyph unicode="&#xe0;" horiz-adv-x="1283" d="M41 256q0 171 206 263q180 79 460 79q26 0 78.5 -5t76.5 -5q25 0 25 80q0 56 -49 99q-54 48 -140 48q-117 0 -178 -86q-4 -8 -16 -22l-363 -41q-5 2 -6 8q2 1 4 4q161 342 533 342q536 0 536 -381q0 -100 -20 -415q-22 -346 -37 -355l-311 -2q-6 3 -6 10q0 17 4 50.5 t4 49.5q0 17 -25 17q-3 0 -10 -2q-158 -43 -305 -43q-222 0 -341.5 81.5t-119.5 225.5zM485 252q0 -121 213 -121q156 0 158 27l14 213q2 22 -137 22q-109 0 -176 -35q-72 -38 -72 -106zM523 1415q0 6 180 131h2q316 -351 316 -352q0 -7 -7 -12l-108 -88h-4l-377 313 q-2 2 -2 8z" />
<glyph unicode="&#xe1;" horiz-adv-x="1283" d="M41 256q0 171 206 263q180 79 460 79q26 0 78.5 -5t76.5 -5q25 0 25 80q0 56 -49 99q-54 48 -140 48q-117 0 -178 -86q-4 -8 -16 -22l-363 -41q-5 2 -6 8q2 1 4 4q161 342 533 342q536 0 536 -381q0 -100 -20 -415q-22 -346 -37 -355l-311 -2q-6 3 -6 10q0 17 4 50.5 t4 49.5q0 17 -25 17q-3 0 -10 -2q-158 -43 -305 -43q-222 0 -341.5 81.5t-119.5 225.5zM485 252q0 -121 213 -121q156 0 158 27l14 213q2 22 -137 22q-109 0 -176 -35q-72 -38 -72 -106zM555 1214q0 2 315 353h2q181 -126 181 -131q0 -7 -2 -9l-381 -313l-109 88q-6 5 -6 12 z" />
<glyph unicode="&#xe2;" horiz-adv-x="1283" d="M41 256q0 171 206 263q180 79 460 79q26 0 78.5 -5t76.5 -5q25 0 25 80q0 56 -49 99q-54 48 -140 48q-117 0 -178 -86q-4 -8 -16 -22l-363 -41q-5 2 -6 8q2 1 4 4q161 342 533 342q536 0 536 -381q0 -100 -20 -415q-22 -346 -37 -355l-311 -2q-6 3 -6 10q0 17 4 50.5 t4 49.5q0 17 -25 17q-3 0 -10 -2q-158 -43 -305 -43q-222 0 -341.5 81.5t-119.5 225.5zM261 1176q0 6 351 315h4q96 7 225 14q18 -11 197.5 -169t179.5 -162q0 -7 -88 -113v-2q-384 223 -392 223q-13 0 -380 -211q-97 94 -97 105zM485 252q0 -121 213 -121q156 0 158 27 l14 213q2 22 -137 22q-109 0 -176 -35q-72 -38 -72 -106z" />
<glyph unicode="&#xe3;" horiz-adv-x="1283" d="M41 256q0 171 206 263q180 79 460 79q26 0 78.5 -5t76.5 -5q25 0 25 80q0 56 -49 99q-54 48 -140 48q-117 0 -178 -86q-4 -8 -16 -22l-363 -41q-5 2 -6 8q2 1 4 4q161 342 533 342q536 0 536 -381q0 -100 -20 -415q-22 -346 -37 -355l-311 -2q-6 3 -6 10q0 17 4 50.5 t4 49.5q0 17 -25 17q-3 0 -10 -2q-158 -43 -305 -43q-222 0 -341.5 81.5t-119.5 225.5zM323 1184l11 227q0 15 72 25q55 8 91 8q80 0 234.5 -40t241.5 -40q20 0 57 7t55 7q6 -4 6 -8v-240q0 -30 -153 -30q-85 0 -252 43t-260 43q-18 0 -49 -5t-47 -5q-7 3 -7 8zM485 252 q0 -121 213 -121q156 0 158 27l14 213q2 22 -137 22q-109 0 -176 -35q-72 -38 -72 -106z" />
<glyph unicode="&#xe4;" horiz-adv-x="1283" d="M41 256q0 171 206 263q180 79 460 79q26 0 78.5 -5t76.5 -5q25 0 25 80q0 56 -49 99q-54 48 -140 48q-117 0 -178 -86q-4 -8 -16 -22l-363 -41q-5 2 -6 8q2 1 4 4q161 342 533 342q536 0 536 -381q0 -100 -20 -415q-22 -346 -37 -355l-311 -2q-6 3 -6 10q0 17 4 50.5 t4 49.5q0 17 -25 17q-3 0 -10 -2q-158 -43 -305 -43q-222 0 -341.5 81.5t-119.5 225.5zM200 1257q0 52 57.5 90.5t138.5 38.5q82 0 138.5 -38t56.5 -91q0 -52 -56.5 -90.5t-138.5 -38.5t-139 38.5t-57 90.5zM485 252q0 -121 213 -121q156 0 158 27l14 213q2 22 -137 22 q-109 0 -176 -35q-72 -38 -72 -106zM691 1257q0 52 58.5 90.5t140.5 38.5t139 -38t57 -91q0 -52 -57.5 -90.5t-138.5 -38.5q-82 0 -140.5 38.5t-58.5 90.5z" />
<glyph unicode="&#xe5;" horiz-adv-x="1283" d="M41 256q0 171 206 263q180 79 460 79q26 0 78.5 -5t76.5 -5q25 0 25 80q0 56 -49 99q-54 48 -140 48q-117 0 -178 -86q-4 -8 -16 -22l-363 -41q-5 2 -6 8q2 1 4 4q135 287 420 334q-143 60 -143 178q0 81 79 144q84 67 210 67q124 0 206 -67q76 -63 76 -144 q0 -123 -145 -182q366 -55 366 -369q0 -100 -20 -415q-22 -346 -37 -355l-311 -2q-6 3 -6 10q0 17 4 50.5t4 49.5q0 17 -25 17q-3 0 -10 -2q-158 -43 -305 -43q-222 0 -341.5 81.5t-119.5 225.5zM485 252q0 -121 213 -121q156 0 158 27l14 213q2 22 -137 22q-109 0 -176 -35 q-72 -38 -72 -106zM610 1190q0 -24 28.5 -39.5t66.5 -15.5q90 0 90 55t-90 55q-38 0 -66.5 -16t-28.5 -39z" />
<glyph unicode="&#xe6;" horiz-adv-x="1915" d="M57 317q0 164 193 249q167 73 434 73q25 0 75.5 -4t74.5 -4t24 76q0 53 -47 94q-52 45 -133 45q-120 0 -176 -94q-1 -3 -4 -7l-344 -43l-7 9q3 3 5 6q52 138 165 221q136 100 336 100q174 0 312 -55q5 -2 16 -2q15 0 23 8q172 185 376 185q249 0 367 -149 q92 -114 92 -290q0 -232 -80 -299l-536 17q-27 0 -27 -19t23 -67q74 -162 305 -162q121 0 299 55h4q2 -1 22 -229q2 -23 -130 -42q-107 -16 -167 -16q-192 0 -391 84q-5 2 -16 2q-28 0 -30 -35v-55q-2 -12 -9 -16l-295 -2q-1 0 -1 1q-3 3 -3 7q0 16 5 49t5 49q0 15 -26 15 h-13q-160 -43 -286 -43q-209 0 -322 76.5t-113 211.5zM475 313q0 -114 201 -114q147 0 149 26l17 201q2 23 -131 23q-104 0 -168 -35q-68 -36 -68 -101zM1192 600q0 -19 27 -18l309 10q18 0 24 12q23 42 23 119q0 141 -154 141q-172 0 -219 -200q-10 -44 -10 -64z" />
<glyph unicode="&#xe7;" horiz-adv-x="996" d="M-2 -496q-1 4 2 13q257 -127 428 -127q197 0 197 155q0 169 -373 181q-6 3 -6 8q0 12 182 258q-177 57 -277 171.5t-100 258.5q0 234 139 390q171 192 510 192q49 0 123 -9q97 -12 97 -28v-351q0 -1 -5 -8q-20 1 -62 4.5t-65 3.5q-335 0 -335 -217q0 -192 329 -192 q27 0 80 6t80 6q5 -3 4 -10l-14 -240q-2 -24 -176 -24q-71 0 -152 10q-7 -15 -47 -85q-27 -49 -27 -60q0 -15 23 -17q393 -40 393 -297q0 -122 -102 -205q-111 -90 -297 -90q-190 0 -345 96q-132 81 -204 207z" />
<glyph unicode="&#xe8;" horiz-adv-x="1090" d="M49 463q0 218 103 401q142 252 419 252q461 0 461 -485q0 -46 -22 -134q-27 -105 -58 -120l-536 16q-27 1 -27 -18q0 -25 27 -78q75 -150 301 -150q124 0 303 54q5 -4 14 -106q8 -96 8 -124q-5 -23 -130 -41q-101 -14 -160 -14q-346 0 -536 168q-167 149 -167 379z M385 543q0 -19 27 -19l303 8q53 2 53 125q0 150 -154 150q-117 0 -181 -101q-48 -76 -48 -163zM459 1477q0 5 180 131h2q315 -351 315 -353q0 -7 -6 -12l-108 -88h-5l-376 313q-2 2 -2 9z" />
<glyph unicode="&#xe9;" horiz-adv-x="1090" d="M49 463q0 218 103 401q142 252 419 252q461 0 461 -485q0 -46 -22 -134q-27 -105 -58 -120l-536 16q-27 1 -27 -18q0 -25 27 -78q75 -150 301 -150q124 0 303 54q5 -4 14 -106q8 -96 8 -124q-5 -23 -130 -41q-101 -14 -160 -14q-346 0 -536 168q-167 149 -167 379z M385 543q0 -19 27 -19l303 8q53 2 53 125q0 150 -154 150q-117 0 -181 -101q-48 -76 -48 -163zM394 1276q0 1 316 352h2q180 -125 180 -131t-2 -8l-381 -313l-109 88q-6 5 -6 12z" />
<glyph unicode="&#xea;" horiz-adv-x="1090" d="M49 463q0 218 103 401q142 252 419 252q461 0 461 -485q0 -46 -22 -134q-27 -105 -58 -120l-536 16q-27 1 -27 -18q0 -25 27 -78q75 -150 301 -150q124 0 303 54q5 -4 14 -106q8 -96 8 -124q-5 -23 -130 -41q-101 -14 -160 -14q-346 0 -536 168q-167 149 -167 379z M101 1237q0 6 350 315h4q96 7 225 15q18 -11 197.5 -169t179.5 -163q0 -6 -88 -113v-2q-384 223 -391 223q-13 0 -381 -210q-96 93 -96 104zM385 543q0 -19 27 -19l303 8q53 2 53 125q0 150 -154 150q-117 0 -181 -101q-48 -76 -48 -163z" />
<glyph unicode="&#xeb;" horiz-adv-x="1090" d="M49 463q0 218 103 401q142 252 419 252q461 0 461 -485q0 -46 -22 -134q-27 -105 -58 -120l-536 16q-27 1 -27 -18q0 -25 27 -78q75 -150 301 -150q124 0 303 54q5 -4 14 -106q8 -96 8 -124q-5 -23 -130 -41q-101 -14 -160 -14q-346 0 -536 168q-167 149 -167 379z M135 1360q0 52 58 90.5t139 38.5q82 0 138.5 -38.5t56.5 -90.5t-57 -90.5t-138 -38.5q-82 0 -139.5 38t-57.5 91zM385 543q0 -19 27 -19l303 8q53 2 53 125q0 150 -154 150q-117 0 -181 -101q-48 -76 -48 -163zM627 1360q0 52 58.5 90.5t140.5 38.5t139 -38.5t57 -90.5 t-57.5 -90.5t-138.5 -38.5q-83 0 -141 38t-58 91z" />
<glyph unicode="&#xec;" horiz-adv-x="675" d="M41 1272q0 5 180 131h2q315 -351 315 -352q0 -8 -6 -13l-108 -88h-5l-376 314q-2 1 -2 8zM129 -94q4 436 18 878l5 2l413 -4q7 -4 6 -8l-28 -866q0 -3 -2 -8l-406 -2q-6 4 -6 8z" />
<glyph unicode="&#xed;" horiz-adv-x="675" d="M129 -94q4 436 18 878l5 2l413 -4q7 -4 6 -8l-28 -866q0 -3 -2 -8l-406 -2q-6 4 -6 8zM266 1071q0 1 315 352h2q180 -125 180 -131t-2 -8l-381 -313l-108 88q-6 5 -6 12z" />
<glyph unicode="&#xee;" horiz-adv-x="675" d="M-92 991q0 6 350 316h4q96 7 225 14q18 -11 197.5 -169t179.5 -163q0 -6 -88 -112v-3q-384 224 -391 224q-13 0 -381 -211q-96 93 -96 104zM129 -94q4 436 18 878l5 2l413 -4q7 -4 6 -8l-28 -866q0 -3 -2 -8l-406 -2q-6 4 -6 8z" />
<glyph unicode="&#xef;" horiz-adv-x="675" d="M-90 1073q0 52 57.5 90.5t139.5 38.5t138 -38t56 -91q0 -52 -56.5 -90.5t-137.5 -38.5q-82 0 -139.5 38.5t-57.5 90.5zM129 -94q4 436 18 878l5 2l413 -4q7 -4 6 -8l-28 -866q0 -3 -2 -8l-406 -2q-6 4 -6 8zM402 1073q0 52 58.5 90.5t139.5 38.5q83 0 140 -38.5t57 -90.5 t-57.5 -90.5t-139.5 -38.5t-140 38.5t-58 90.5z" />
<glyph unicode="&#xf0;" horiz-adv-x="1264" d="M63 412q0 175 76 316q98 182 299 243q65 19 172 26q23 2 23 17q0 20 -54 83q-57 66 -81 66q-13 0 -85 -48q-82 -56 -91 -60q-10 5 -50.5 52.5t-40.5 51.5q0 11 59.5 47.5t59.5 44.5q0 11 -174 70q-6 5 -6 10q0 9 209 271l4 2q37 -8 151 -78q110 -68 119 -68q12 0 69 39 q64 45 75 49q16 -12 53 -50q41 -42 41 -50q0 -10 -56.5 -46t-56.5 -44q0 -7 4 -10q408 -387 408 -943q0 -192 -107 -328q-136 -175 -407 -175q-317 0 -478 162q-135 136 -135 350zM416 391q0 -182 192 -182q109 0 164 84q41 62 41 143q0 71 -40 119q-51 61 -152 61 q-104 0 -161 -84q-44 -64 -44 -141z" />
<glyph unicode="&#xf1;" horiz-adv-x="1350" d="M74 1079q0 4 6 8h389q7 -5 7 -20q0 -9 -3 -29.5t-3 -29.5q0 -31 28 -31q9 0 53 32q54 40 103 60q78 33 171 33q461 0 461 -555q0 -105 -26 -561q-1 -7 -7 -11l-383 19q-2 2 -2 10q6 383 6 545q0 242 -167 242q-181 0 -232 -134v-4l10 -624q0 -7 -2 -9l-397 -6q-6 5 -6 9z M291 1266l10 227q1 15 73 25q55 8 91 8q80 0 234.5 -40t240.5 -40q21 0 57.5 7t55.5 7q6 -4 6 -8v-240q0 -30 -153 -30q-85 0 -252.5 43t-259.5 43q-18 0 -49 -5t-48 -6q-6 4 -6 9z" />
<glyph unicode="&#xf2;" horiz-adv-x="1215" d="M49 489q0 225 93 373q132 211 429 211q316 0 475 -184q127 -148 127 -367q0 -202 -103 -349q-137 -196 -415 -196q-315 0 -474 163q-132 135 -132 349zM395 467q0 -182 197 -182q109 0 164 84q41 62 41 143q0 71 -41 120q-52 62 -154 62q-104 0 -162 -85 q-45 -66 -45 -142zM426 1436q0 5 181 131h2q315 -351 315 -353q0 -7 -6 -12l-109 -88h-4l-377 313q-2 2 -2 9z" />
<glyph unicode="&#xf3;" horiz-adv-x="1215" d="M49 489q0 225 93 373q132 211 429 211q316 0 475 -184q127 -148 127 -367q0 -202 -103 -349q-137 -196 -415 -196q-315 0 -474 163q-132 135 -132 349zM395 467q0 -182 197 -182q109 0 164 84q41 62 41 143q0 71 -41 120q-52 62 -154 62q-104 0 -162 -85 q-45 -66 -45 -142zM459 1276q0 1 315 352h2q180 -125 180 -131t-2 -8l-381 -313l-108 88q-6 5 -6 12z" />
<glyph unicode="&#xf4;" horiz-adv-x="1215" d="M49 489q0 225 93 373q132 211 429 211q316 0 475 -184q127 -148 127 -367q0 -202 -103 -349q-137 -196 -415 -196q-315 0 -474 163q-132 135 -132 349zM133 1196q0 6 350 315h4q96 8 225 15q18 -11 197.5 -169t179.5 -163q0 -6 -88 -113v-2q-384 224 -391 224 q-13 0 -381 -211q-96 93 -96 104zM395 467q0 -182 197 -182q109 0 164 84q41 62 41 143q0 71 -41 120q-52 62 -154 62q-104 0 -162 -85q-45 -66 -45 -142z" />
<glyph unicode="&#xf5;" horiz-adv-x="1215" d="M49 489q0 225 93 373q132 211 429 211q316 0 475 -184q127 -148 127 -367q0 -202 -103 -349q-137 -196 -415 -196q-315 0 -474 163q-132 135 -132 349zM195 1225l10 227q1 15 72 25q56 8 92 8q80 0 234.5 -40t240.5 -40q21 0 57.5 7t55.5 7q6 -4 6 -8v-240 q0 -30 -154 -30q-84 0 -251.5 43t-260.5 43q-17 0 -48.5 -5t-47.5 -5q-6 3 -6 8zM395 467q0 -182 197 -182q109 0 164 84q41 62 41 143q0 71 -41 120q-52 62 -154 62q-104 0 -162 -85q-45 -66 -45 -142z" />
<glyph unicode="&#xf6;" horiz-adv-x="1215" d="M49 489q0 225 93 373q132 211 429 211q316 0 475 -184q127 -148 127 -367q0 -202 -103 -349q-137 -196 -415 -196q-315 0 -474 163q-132 135 -132 349zM135 1319q0 52 58 90.5t139 38.5q82 0 138.5 -38.5t56.5 -90.5t-57 -90.5t-138 -38.5q-82 0 -139.5 38t-57.5 91z M395 467q0 -182 197 -182q109 0 164 84q41 62 41 143q0 71 -41 120q-52 62 -154 62q-104 0 -162 -85q-45 -66 -45 -142zM627 1319q0 52 58.5 90.5t140.5 38.5t139 -38.5t57 -90.5t-57.5 -90.5t-138.5 -38.5q-83 0 -141 38t-58 91z" />
<glyph unicode="&#xf7;" d="M254 475v273h1198v-273h-1198zM670 188q0 78 53.5 130.5t130.5 52.5q74 0 128 -54.5t54 -128.5q0 -73 -54 -127.5t-130 -54.5t-129 53t-53 129zM670 1032q0 76 54 130.5t130 54.5q73 0 127.5 -56t54.5 -129q0 -74 -54 -128t-130 -54t-129 53t-53 129z" />
<glyph unicode="&#xf8;" horiz-adv-x="1215" d="M51 512q0 225 94 374q133 212 430 212q93 0 193 -23h10q25 0 42 43q21 53 26 58l106 -5q6 -3 6 -8q0 -14 -27.5 -64t-27.5 -65q0 -6 10 -12q265 -159 265 -475q0 -203 -104 -351q-137 -196 -415 -196q-94 0 -190 18q-2 1 -6 2q-27 0 -40 -44q-14 -48 -24 -52l-104 -8 q-6 4 -6 8q0 14 27.5 62.5t27.5 62.5q0 8 -12 14q-34 17 -96 56q-185 136 -185 393zM399 492q0 -43 14 -81q17 -51 50 -51q18 0 22 11q148 331 148 329q0 17 -29 17q-104 0 -161 -84q-44 -65 -44 -141zM586 326q0 -17 24 -17q26 0 60 13q131 47 131 213q0 33 -12 66 q-16 44 -44 44q-17 0 -22 -10q-137 -302 -137 -309z" />
<glyph unicode="&#xf9;" horiz-adv-x="1350" d="M68 494q0 105 26 563q0 4 6 8l383 -21q2 -1 2 -8q-6 -380 -6 -542q0 -244 164 -244q170 0 225 127q11 8 11 12l-11 623q0 7 2 8l400 8q6 -3 6 -8l4 -1057q0 -4 -6 -8h-387q-8 5 -8 21q0 8 3 28.5t3 30.5q0 31 -27 31q-9 0 -52 -33q-53 -40 -101 -60q-78 -32 -170 -32 q-272 0 -388 203q-79 138 -79 350zM362 1415q0 6 180 131h2q316 -351 316 -352q0 -7 -6 -12l-109 -88h-4l-377 313q-2 2 -2 8z" />
<glyph unicode="&#xfa;" horiz-adv-x="1350" d="M68 494q0 105 26 563q0 4 6 8l383 -21q2 -1 2 -8q-6 -380 -6 -542q0 -244 164 -244q170 0 225 127q11 8 11 12l-11 623q0 7 2 8l400 8q6 -3 6 -8l4 -1057q0 -4 -6 -8h-387q-8 5 -8 21q0 8 3 28.5t3 30.5q0 31 -27 31q-9 0 -52 -33q-53 -40 -101 -60q-78 -32 -170 -32 q-272 0 -388 203q-79 138 -79 350zM587 1235q0 1 316 352h2q180 -125 180 -131t-2 -8l-381 -313l-109 88q-6 5 -6 12z" />
<glyph unicode="&#xfb;" horiz-adv-x="1350" d="M68 494q0 105 26 563q0 4 6 8l383 -21q2 -1 2 -8q-6 -380 -6 -542q0 -244 164 -244q170 0 225 127q11 8 11 12l-11 623q0 7 2 8l400 8q6 -3 6 -8l4 -1057q0 -4 -6 -8h-387q-8 5 -8 21q0 8 3 28.5t3 30.5q0 31 -27 31q-9 0 -52 -33q-53 -40 -101 -60q-78 -32 -170 -32 q-272 0 -388 203q-79 138 -79 350zM197 1278q0 6 350 315h4q97 7 226 15q18 -12 197 -170t179 -162q0 -6 -88 -113v-2q-383 223 -391 223q-13 0 -381 -210q-96 93 -96 104z" />
<glyph unicode="&#xfc;" horiz-adv-x="1350" d="M68 494q0 105 26 563q0 4 6 8l383 -21q2 -1 2 -8q-6 -380 -6 -542q0 -244 164 -244q170 0 225 127q11 8 11 12l-11 623q0 7 2 8l400 8q6 -3 6 -8l4 -1057q0 -4 -6 -8h-387q-8 5 -8 21q0 8 3 28.5t3 30.5q0 31 -27 31q-9 0 -52 -33q-53 -40 -101 -60q-78 -32 -170 -32 q-272 0 -388 203q-79 138 -79 350zM241 1319q0 52 58 90.5t139 38.5q82 0 138.5 -38.5t56.5 -90.5t-57 -90.5t-138 -38.5q-82 0 -139.5 38t-57.5 91zM733 1319q0 52 58.5 90.5t140.5 38.5t139 -38.5t57 -90.5t-57.5 -90.5t-138.5 -38.5q-82 0 -140.5 38t-58.5 91z" />
<glyph unicode="&#xfd;" horiz-adv-x="1329" d="M51 547q0 107 27 565q1 6 6 8l383 -18q2 -2 2 -10q-6 -381 -6 -543q0 -244 164 -244t229 131l2 4l-6 707q0 5 4 8l401 -2q7 -4 7 -47q0 -496 -11 -850q-2 -119 -5 -237q-6 -137 -29 -236q-41 -173 -176 -278q-157 -123 -412 -123q-46 0 -118 8q-95 11 -95 26v322 q0 8 10 8q20 0 59.5 -4t59.5 -4q315 0 315 194v168q0 17 -26 17q-11 0 -53 -32q-52 -38 -100 -58q-77 -31 -171 -31q-269 0 -384 203q-77 137 -77 348zM549 1313q0 1 315 352h2q180 -125 180 -131q0 -7 -2 -8l-381 -314l-108 88q-6 5 -6 13z" />
<glyph unicode="&#xfe;" horiz-adv-x="1389" d="M68 1565q-1 5 4 8l426 4q3 -2 6 -584q0 -16 26 -16q7 0 49.5 5t67.5 5q153 0 283 -43q196 -65 298 -201q91 -121 91 -274q0 -192 -126 -332q-153 -170 -433 -170q-112 0 -207 39q-5 2 -16 2q-25 0 -25 -16l6 -574q0 -5 -6 -10l-373 8q-8 6 -8 11zM508 602l4 -344 q0 -29 127 -29q217 0 217 179q0 98 -84 154t-237 56q-27 0 -27 -16z" />
<glyph unicode="&#xff;" horiz-adv-x="1329" d="M51 547q0 107 27 565q1 6 6 8l383 -18q2 -2 2 -10q-6 -381 -6 -543q0 -244 164 -244t229 131l2 4l-6 707q0 5 4 8l401 -2q7 -4 7 -47q0 -496 -11 -850q-2 -119 -5 -237q-6 -137 -29 -236q-41 -173 -176 -278q-157 -123 -412 -123q-46 0 -118 8q-95 11 -95 26v322 q0 8 10 8q20 0 59.5 -4t59.5 -4q315 0 315 194v168q0 17 -26 17q-11 0 -53 -32q-52 -38 -100 -58q-77 -31 -171 -31q-269 0 -384 203q-77 137 -77 348zM200 1380q0 52 57.5 90.5t138.5 38.5q82 0 138.5 -38t56.5 -91q0 -52 -56.5 -90.5t-138.5 -38.5t-139 38.5t-57 90.5z M691 1380q0 52 58.5 90.5t140.5 38.5t139 -38t57 -91q0 -52 -57.5 -90.5t-138.5 -38.5q-82 0 -140.5 38.5t-58.5 90.5z" />
<glyph unicode="&#x152;" horiz-adv-x="2448" d="M68 657q0 292 191 512q234 269 656 269q51 0 263 -39q2 -1 8 -2h1210q2 -2 2 -8v-285q0 -9 -2 -10h-676q-26 0 -26 -15l-2 -237q0 -17 24 -17h541q4 -2 4 -8v-289q0 -5 -4 -8h-543q-26 0 -26 -16l-2 -219q-1 -17 24 -17h686q2 -1 2 -10v-287q0 -6 -2 -8h-1206 q-6 0 -12 -2q-144 -49 -277 -49q-434 0 -655 246q-178 200 -178 499zM520 637q0 -124 78 -231q98 -134 270 -134t273 135q82 108 82 230t-82 230q-101 134 -273 134t-270 -134q-78 -106 -78 -230z" />
<glyph unicode="&#x153;" horiz-adv-x="1910" d="M63 481q0 225 95 374q133 212 430 212q206 0 377 -96q7 -4 18 -4q13 0 21 8q177 190 378 190q255 0 373 -158q88 -119 88 -302q0 -207 -82 -279l-536 16q-25 1 -25 -18q0 -21 23 -70q73 -157 305 -157q131 0 301 53q4 -3 20 -230q2 -22 -130 -40q-106 -15 -167 -15 q-266 0 -479 133q-10 6 -22 6q-5 0 -53 -35q-56 -41 -117 -65q-92 -35 -205 -35q-317 0 -478 162q-135 136 -135 350zM416 461q0 -182 192 -182q109 0 164 83q41 61 41 142q0 70 -40 120q-52 62 -152 62q-104 0 -161 -84q-44 -65 -44 -141zM1196 592q0 -19 27 -19l301 9 l22 8q29 24 29 127q0 139 -148 139q-174 0 -221 -201q-10 -43 -10 -63z" />
<glyph unicode="&#x178;" horiz-adv-x="1587" d="M35 1329q1 4 6 8l496 -6q4 -1 6 -4l217 -592q4 -12 24 -12q22 0 27 12q122 296 250 596h498q3 -3 4 -8q0 -16 -480 -842q-57 -99 -57 -102l6 -414q0 -4 -6 -8l-491 -8q-5 3 -5 430q0 -1 -55 104q-440 837 -440 846zM328 1585q0 52 57.5 90.5t139.5 38.5t138 -38t56 -91 q0 -52 -56.5 -90.5t-137.5 -38.5q-82 0 -139.5 38.5t-57.5 90.5zM820 1585q0 52 58.5 90.5t139.5 38.5q83 0 140 -38.5t57 -90.5t-57.5 -90.5t-139.5 -38.5t-140 38.5t-58 90.5z" />
<glyph unicode="&#x2c6;" horiz-adv-x="1608" d="M326 1094q0 6 350 315h4q96 7 225 14q18 -11 197.5 -169t179.5 -162q0 -6 -88 -113v-2q-384 223 -391 223q-13 0 -381 -211q-96 94 -96 105z" />
<glyph unicode="&#x2dc;" horiz-adv-x="1608" d="M420 1102l10 227q1 15 73 25q55 8 91 8q80 0 234.5 -40t240.5 -40q21 0 57.5 7t55.5 7q6 -4 6 -8v-239q0 -31 -154 -31q-84 0 -251.5 43t-260.5 43q-17 0 -48.5 -5t-47.5 -5q-6 3 -6 8z" />
<glyph unicode="&#x2000;" horiz-adv-x="978" />
<glyph unicode="&#x2001;" horiz-adv-x="1956" />
<glyph unicode="&#x2002;" horiz-adv-x="978" />
<glyph unicode="&#x2003;" horiz-adv-x="1956" />
<glyph unicode="&#x2004;" horiz-adv-x="652" />
<glyph unicode="&#x2005;" horiz-adv-x="489" />
<glyph unicode="&#x2006;" horiz-adv-x="326" />
<glyph unicode="&#x2007;" horiz-adv-x="326" />
<glyph unicode="&#x2008;" horiz-adv-x="244" />
<glyph unicode="&#x2009;" horiz-adv-x="391" />
<glyph unicode="&#x200a;" horiz-adv-x="108" />
<glyph unicode="&#x2010;" horiz-adv-x="819" d="M72 377v155q2 132 12 140h657q7 -5 7 -10v-287q-1 -6 -5 -8h-665q-7 5 -6 10z" />
<glyph unicode="&#x2011;" horiz-adv-x="819" d="M72 377v155q2 132 12 140h657q7 -5 7 -10v-287q-1 -6 -5 -8h-665q-7 5 -6 10z" />
<glyph unicode="&#x2012;" horiz-adv-x="819" d="M72 377v155q2 132 12 140h657q7 -5 7 -10v-287q-1 -6 -5 -8h-665q-7 5 -6 10z" />
<glyph unicode="&#x2013;" horiz-adv-x="1024" d="M72 377q1 77 3 155q3 132 13 140h856q8 -7 8 -10v-287q-1 -3 -8 -8h-866q-7 5 -6 10z" />
<glyph unicode="&#x2014;" horiz-adv-x="2048" d="M-41 377q1 77 3 155q4 132 13 140h2108q6 -5 6 -10v-287q0 -7 -2 -8h-2122q-6 5 -6 10z" />
<glyph unicode="&#x2018;" horiz-adv-x="730" d="M106 1001q0 167 300 259q2 -2 2 -9q0 -2 -19 -38t-16 -68v4q0 -19 22 -23q19 -2 56 -8q174 -35 174 -125v-2q0 -57 -87 -94q-77 -33 -171 -33q-101 0 -177 36q-84 40 -84 101z" />
<glyph unicode="&#x2019;" horiz-adv-x="730" d="M106 1130v3q0 57 86 94q76 33 170 33q101 0 178 -37q85 -39 85 -101q0 -166 -299 -258q-4 4 -4 8q0 2 18.5 38.5t15.5 68.5v-4q0 19 -22 22q-18 3 -53 9q-175 35 -175 124z" />
<glyph unicode="&#x201a;" horiz-adv-x="685" d="M68 139v4q0 58 86 96q77 33 172 33q96 0 175 -36q87 -39 87 -99q0 -170 -299 -262q-6 5 -6 8q0 5 17.5 40t14.5 65l2 -2q0 19 -21.5 21.5t-64.5 8.5q-163 37 -163 123z" />
<glyph unicode="&#x201c;" horiz-adv-x="1315" d="M106 1001q0 167 300 259q2 -2 2 -9q0 -2 -19 -38t-16 -68v4q0 -19 22 -23q19 -2 56 -8q174 -35 174 -125v-2q0 -57 -87 -94q-77 -33 -171 -33q-101 0 -177 36q-84 40 -84 101zM692 1001q0 168 295 259q4 -4 4 -9q0 -7 -16.5 -39t-16.5 -51v-12q0 -19 23 -23q19 -2 55 -8 q172 -35 172 -125v-2q0 -57 -85 -94q-77 -33 -171 -33q-100 0 -176 36q-84 40 -84 101z" />
<glyph unicode="&#x201d;" horiz-adv-x="1315" d="M106 1130v3q0 57 86 94q76 33 170 33q101 0 178 -37q85 -39 85 -101q0 -167 -297 -258q-2 2 -2 8q0 7 15 39.5t15 51.5v12q0 19 -22 22q-18 3 -53 9q-175 35 -175 124zM692 1130v3q0 57 86 94q76 33 170 33q101 0 177 -37q83 -39 83 -101q0 -166 -299 -258q-2 2 -2 8 q0 2 19 38.5t16 68.5v-4q0 19 -20.5 22t-57.5 9q-172 34 -172 124z" />
<glyph unicode="&#x201e;" horiz-adv-x="1235" d="M68 139v4q0 58 86 96q77 33 172 33q96 0 175 -36q87 -39 87 -99q0 -170 -299 -262q-6 5 -6 8q0 5 17.5 40t14.5 65l2 -2q0 19 -21.5 21.5t-64.5 8.5q-163 37 -163 123zM647 139v4q0 58 85 96q77 33 171 33q97 0 177 -36q87 -39 87 -99q0 -170 -299 -262q-6 5 -6 8 q0 5 16.5 40t14.5 65l4 -2q0 19 -22 21.5t-64 8.5q-164 37 -164 123z" />
<glyph unicode="&#x2022;" horiz-adv-x="1208" d="M307 762q0 124 86 209.5t211 85.5q124 0 209.5 -85.5t85.5 -209.5q0 -122 -87.5 -209.5t-209.5 -87.5t-208.5 87.5t-86.5 209.5z" />
<glyph unicode="&#x2026;" horiz-adv-x="1942" d="M68 133q0 57 86 94q77 33 172 33q97 0 175 -35q87 -39 87 -98t-87 -97q-77 -34 -173 -34q-102 0 -177 35q-83 40 -83 102zM711 133q0 57 86 94q77 33 172 33q97 0 175 -35q87 -39 87 -98t-87 -97q-77 -34 -173 -34q-102 0 -177 35q-83 40 -83 102zM1354 133q0 57 86 94 q78 33 172 33q97 0 175 -35q87 -39 87 -98t-86 -97q-78 -34 -174 -34q-102 0 -177 35q-83 40 -83 102z" />
<glyph unicode="&#x202f;" horiz-adv-x="391" />
<glyph unicode="&#x2039;" horiz-adv-x="868" d="M96 649q0 4 580 441q17 -15 55 -69q41 -58 41 -71q-410 -415 -410 -418q0 -14 197 -177t197 -181q0 -7 -31.5 -72t-36.5 -69h-4q-282 181 -567 375q0 39 -10.5 119.5t-10.5 121.5z" />
<glyph unicode="&#x203a;" horiz-adv-x="868" d="M96 950q0 13 41 71q39 54 56 69q579 -437 579 -441q0 -40 -10 -121t-10 -120q-3 -8 -570 -375h-2q-4 4 -35.5 69t-31.5 72q0 18 195.5 181t195.5 177q0 5 -408 418z" />
<glyph unicode="&#x205f;" horiz-adv-x="489" />
<glyph unicode="&#x20ac;" horiz-adv-x="1681" d="M78 537q0 6 2 8h174q26 0 27 16q2 54 2 80q0 18 -25 18h-172q-5 4 -8 117q0 5 6 10l199 -4q21 0 26 15q43 115 84 176q126 187 385 285q245 94 570 94h18q13 0 14 -9l68 -362q1 -4 -4 -8l-4 -2q-148 6 -150 6q-319 0 -489 -170q-9 -9 -4 -18t22 -9l326 -2q6 -4 6 -8 q0 -5 -21.5 -62t-23.5 -59l-361 4q-18 1 -24 -16.5t-6 -79.5q0 -16 24 -16h334q4 -3 4 -13q0 -7 -22.5 -61.5t-26.5 -56.5l-231 2q-15 0 -23 -9q-7 -8 0 -16q121 -129 354 -129q196 0 422 117q2 -2 39 -157t37 -165q0 -3 -2 -8q-75 -71 -230 -111q-136 -34 -288 -34 q-254 0 -450 94q-187 90 -283 246q-31 50 -70 163q-5 15 -22 15l-195 2q-5 3 -8 117z" />
<glyph unicode="&#x2122;" d="M164 1317v151h526v-151h-162v-408h-202v408h-162zM788 909v559h256l99 -266l98 266h256v-559h-182v367l-137 -367h-70l-137 367v-367h-183z" />
<glyph unicode="&#xe000;" horiz-adv-x="1055" d="M0 0v1055h1055v-1055h-1055z" />
</font>
</defs>
</svg>
